<?xml version="1.0" encoding="utf-8" standalone="no"?>
<!DOCTYPE svg PUBLIC "-//W3C//DTD SVG 1.1//EN"
  "http://www.w3.org/Graphics/SVG/1.1/DTD/svg11.dtd">
<svg xmlns:xlink="http://www.w3.org/1999/xlink" width="720pt" height="432pt" viewBox="0 0 720 432" xmlns="http://www.w3.org/2000/svg" version="1.1">
 <metadata>
  <rdf:RDF xmlns:dc="http://purl.org/dc/elements/1.1/" xmlns:cc="http://creativecommons.org/ns#" xmlns:rdf="http://www.w3.org/1999/02/22-rdf-syntax-ns#">
   <cc:Work>
    <dc:type rdf:resource="http://purl.org/dc/dcmitype/StillImage"/>
    <dc:date>2023-10-27T14:15:17.128287</dc:date>
    <dc:format>image/svg+xml</dc:format>
    <dc:creator>
     <cc:Agent>
      <dc:title>Matplotlib v3.8.0, https://matplotlib.org/</dc:title>
     </cc:Agent>
    </dc:creator>
   </cc:Work>
  </rdf:RDF>
 </metadata>
 <defs>
  <style type="text/css">*{stroke-linejoin: round; stroke-linecap: butt}</style>
 </defs>
 <g id="figure_1">
  <g id="patch_1">
   <path d="M 0 432 
L 720 432 
L 720 0 
L 0 0 
z
" style="fill: #ffffff"/>
  </g>
  <g id="axes_1">
   <g id="patch_2">
    <path d="M 90 384.48 
L 648 384.48 
L 648 51.84 
L 90 51.84 
z
" style="fill: #ffffff"/>
   </g>
   <g id="matplotlib.axis_1">
    <g id="xtick_1">
     <g id="line2d_1">
      <path d="M 115.363636 384.48 
L 115.363636 51.84 
" clip-path="url(#p8910c924a5)" style="fill: none; stroke: #b0b0b0; stroke-width: 0.8; stroke-linecap: square"/>
     </g>
     <g id="line2d_2">
      <defs>
       <path id="mcdc5b56c6b" d="M 0 0 
L 0 3.5 
" style="stroke: #000000; stroke-width: 0.8"/>
      </defs>
      <g>
       <use xlink:href="#mcdc5b56c6b" x="115.363636" y="384.48" style="stroke: #000000; stroke-width: 0.8"/>
      </g>
     </g>
     <g id="text_1">
      <!-- 0 -->
      <g transform="translate(112.182386 399.078438) scale(0.1 -0.1)">
       <defs>
        <path id="DejaVuSans-30" d="M 2034 4250 
Q 1547 4250 1301 3770 
Q 1056 3291 1056 2328 
Q 1056 1369 1301 889 
Q 1547 409 2034 409 
Q 2525 409 2770 889 
Q 3016 1369 3016 2328 
Q 3016 3291 2770 3770 
Q 2525 4250 2034 4250 
z
M 2034 4750 
Q 2819 4750 3233 4129 
Q 3647 3509 3647 2328 
Q 3647 1150 3233 529 
Q 2819 -91 2034 -91 
Q 1250 -91 836 529 
Q 422 1150 422 2328 
Q 422 3509 836 4129 
Q 1250 4750 2034 4750 
z
" transform="scale(0.015625)"/>
       </defs>
       <use xlink:href="#DejaVuSans-30"/>
      </g>
     </g>
    </g>
    <g id="xtick_2">
     <g id="line2d_3">
      <path d="M 178.931647 384.48 
L 178.931647 51.84 
" clip-path="url(#p8910c924a5)" style="fill: none; stroke: #b0b0b0; stroke-width: 0.8; stroke-linecap: square"/>
     </g>
     <g id="line2d_4">
      <g>
       <use xlink:href="#mcdc5b56c6b" x="178.931647" y="384.48" style="stroke: #000000; stroke-width: 0.8"/>
      </g>
     </g>
     <g id="text_2">
      <!-- 50 -->
      <g transform="translate(172.569147 399.078438) scale(0.1 -0.1)">
       <defs>
        <path id="DejaVuSans-35" d="M 691 4666 
L 3169 4666 
L 3169 4134 
L 1269 4134 
L 1269 2991 
Q 1406 3038 1543 3061 
Q 1681 3084 1819 3084 
Q 2600 3084 3056 2656 
Q 3513 2228 3513 1497 
Q 3513 744 3044 326 
Q 2575 -91 1722 -91 
Q 1428 -91 1123 -41 
Q 819 9 494 109 
L 494 744 
Q 775 591 1075 516 
Q 1375 441 1709 441 
Q 2250 441 2565 725 
Q 2881 1009 2881 1497 
Q 2881 1984 2565 2268 
Q 2250 2553 1709 2553 
Q 1456 2553 1204 2497 
Q 953 2441 691 2322 
L 691 4666 
z
" transform="scale(0.015625)"/>
       </defs>
       <use xlink:href="#DejaVuSans-35"/>
       <use xlink:href="#DejaVuSans-30" x="63.623047"/>
      </g>
     </g>
    </g>
    <g id="xtick_3">
     <g id="line2d_5">
      <path d="M 242.499658 384.48 
L 242.499658 51.84 
" clip-path="url(#p8910c924a5)" style="fill: none; stroke: #b0b0b0; stroke-width: 0.8; stroke-linecap: square"/>
     </g>
     <g id="line2d_6">
      <g>
       <use xlink:href="#mcdc5b56c6b" x="242.499658" y="384.48" style="stroke: #000000; stroke-width: 0.8"/>
      </g>
     </g>
     <g id="text_3">
      <!-- 100 -->
      <g transform="translate(232.955908 399.078438) scale(0.1 -0.1)">
       <defs>
        <path id="DejaVuSans-31" d="M 794 531 
L 1825 531 
L 1825 4091 
L 703 3866 
L 703 4441 
L 1819 4666 
L 2450 4666 
L 2450 531 
L 3481 531 
L 3481 0 
L 794 0 
L 794 531 
z
" transform="scale(0.015625)"/>
       </defs>
       <use xlink:href="#DejaVuSans-31"/>
       <use xlink:href="#DejaVuSans-30" x="63.623047"/>
       <use xlink:href="#DejaVuSans-30" x="127.246094"/>
      </g>
     </g>
    </g>
    <g id="xtick_4">
     <g id="line2d_7">
      <path d="M 306.067669 384.48 
L 306.067669 51.84 
" clip-path="url(#p8910c924a5)" style="fill: none; stroke: #b0b0b0; stroke-width: 0.8; stroke-linecap: square"/>
     </g>
     <g id="line2d_8">
      <g>
       <use xlink:href="#mcdc5b56c6b" x="306.067669" y="384.48" style="stroke: #000000; stroke-width: 0.8"/>
      </g>
     </g>
     <g id="text_4">
      <!-- 150 -->
      <g transform="translate(296.523919 399.078438) scale(0.1 -0.1)">
       <use xlink:href="#DejaVuSans-31"/>
       <use xlink:href="#DejaVuSans-35" x="63.623047"/>
       <use xlink:href="#DejaVuSans-30" x="127.246094"/>
      </g>
     </g>
    </g>
    <g id="xtick_5">
     <g id="line2d_9">
      <path d="M 369.63568 384.48 
L 369.63568 51.84 
" clip-path="url(#p8910c924a5)" style="fill: none; stroke: #b0b0b0; stroke-width: 0.8; stroke-linecap: square"/>
     </g>
     <g id="line2d_10">
      <g>
       <use xlink:href="#mcdc5b56c6b" x="369.63568" y="384.48" style="stroke: #000000; stroke-width: 0.8"/>
      </g>
     </g>
     <g id="text_5">
      <!-- 200 -->
      <g transform="translate(360.09193 399.078438) scale(0.1 -0.1)">
       <defs>
        <path id="DejaVuSans-32" d="M 1228 531 
L 3431 531 
L 3431 0 
L 469 0 
L 469 531 
Q 828 903 1448 1529 
Q 2069 2156 2228 2338 
Q 2531 2678 2651 2914 
Q 2772 3150 2772 3378 
Q 2772 3750 2511 3984 
Q 2250 4219 1831 4219 
Q 1534 4219 1204 4116 
Q 875 4013 500 3803 
L 500 4441 
Q 881 4594 1212 4672 
Q 1544 4750 1819 4750 
Q 2544 4750 2975 4387 
Q 3406 4025 3406 3419 
Q 3406 3131 3298 2873 
Q 3191 2616 2906 2266 
Q 2828 2175 2409 1742 
Q 1991 1309 1228 531 
z
" transform="scale(0.015625)"/>
       </defs>
       <use xlink:href="#DejaVuSans-32"/>
       <use xlink:href="#DejaVuSans-30" x="63.623047"/>
       <use xlink:href="#DejaVuSans-30" x="127.246094"/>
      </g>
     </g>
    </g>
    <g id="xtick_6">
     <g id="line2d_11">
      <path d="M 433.203691 384.48 
L 433.203691 51.84 
" clip-path="url(#p8910c924a5)" style="fill: none; stroke: #b0b0b0; stroke-width: 0.8; stroke-linecap: square"/>
     </g>
     <g id="line2d_12">
      <g>
       <use xlink:href="#mcdc5b56c6b" x="433.203691" y="384.48" style="stroke: #000000; stroke-width: 0.8"/>
      </g>
     </g>
     <g id="text_6">
      <!-- 250 -->
      <g transform="translate(423.659941 399.078438) scale(0.1 -0.1)">
       <use xlink:href="#DejaVuSans-32"/>
       <use xlink:href="#DejaVuSans-35" x="63.623047"/>
       <use xlink:href="#DejaVuSans-30" x="127.246094"/>
      </g>
     </g>
    </g>
    <g id="xtick_7">
     <g id="line2d_13">
      <path d="M 496.771702 384.48 
L 496.771702 51.84 
" clip-path="url(#p8910c924a5)" style="fill: none; stroke: #b0b0b0; stroke-width: 0.8; stroke-linecap: square"/>
     </g>
     <g id="line2d_14">
      <g>
       <use xlink:href="#mcdc5b56c6b" x="496.771702" y="384.48" style="stroke: #000000; stroke-width: 0.8"/>
      </g>
     </g>
     <g id="text_7">
      <!-- 300 -->
      <g transform="translate(487.227952 399.078438) scale(0.1 -0.1)">
       <defs>
        <path id="DejaVuSans-33" d="M 2597 2516 
Q 3050 2419 3304 2112 
Q 3559 1806 3559 1356 
Q 3559 666 3084 287 
Q 2609 -91 1734 -91 
Q 1441 -91 1130 -33 
Q 819 25 488 141 
L 488 750 
Q 750 597 1062 519 
Q 1375 441 1716 441 
Q 2309 441 2620 675 
Q 2931 909 2931 1356 
Q 2931 1769 2642 2001 
Q 2353 2234 1838 2234 
L 1294 2234 
L 1294 2753 
L 1863 2753 
Q 2328 2753 2575 2939 
Q 2822 3125 2822 3475 
Q 2822 3834 2567 4026 
Q 2313 4219 1838 4219 
Q 1578 4219 1281 4162 
Q 984 4106 628 3988 
L 628 4550 
Q 988 4650 1302 4700 
Q 1616 4750 1894 4750 
Q 2613 4750 3031 4423 
Q 3450 4097 3450 3541 
Q 3450 3153 3228 2886 
Q 3006 2619 2597 2516 
z
" transform="scale(0.015625)"/>
       </defs>
       <use xlink:href="#DejaVuSans-33"/>
       <use xlink:href="#DejaVuSans-30" x="63.623047"/>
       <use xlink:href="#DejaVuSans-30" x="127.246094"/>
      </g>
     </g>
    </g>
    <g id="xtick_8">
     <g id="line2d_15">
      <path d="M 560.339713 384.48 
L 560.339713 51.84 
" clip-path="url(#p8910c924a5)" style="fill: none; stroke: #b0b0b0; stroke-width: 0.8; stroke-linecap: square"/>
     </g>
     <g id="line2d_16">
      <g>
       <use xlink:href="#mcdc5b56c6b" x="560.339713" y="384.48" style="stroke: #000000; stroke-width: 0.8"/>
      </g>
     </g>
     <g id="text_8">
      <!-- 350 -->
      <g transform="translate(550.795963 399.078438) scale(0.1 -0.1)">
       <use xlink:href="#DejaVuSans-33"/>
       <use xlink:href="#DejaVuSans-35" x="63.623047"/>
       <use xlink:href="#DejaVuSans-30" x="127.246094"/>
      </g>
     </g>
    </g>
    <g id="xtick_9">
     <g id="line2d_17">
      <path d="M 623.907724 384.48 
L 623.907724 51.84 
" clip-path="url(#p8910c924a5)" style="fill: none; stroke: #b0b0b0; stroke-width: 0.8; stroke-linecap: square"/>
     </g>
     <g id="line2d_18">
      <g>
       <use xlink:href="#mcdc5b56c6b" x="623.907724" y="384.48" style="stroke: #000000; stroke-width: 0.8"/>
      </g>
     </g>
     <g id="text_9">
      <!-- 400 -->
      <g transform="translate(614.363974 399.078438) scale(0.1 -0.1)">
       <defs>
        <path id="DejaVuSans-34" d="M 2419 4116 
L 825 1625 
L 2419 1625 
L 2419 4116 
z
M 2253 4666 
L 3047 4666 
L 3047 1625 
L 3713 1625 
L 3713 1100 
L 3047 1100 
L 3047 0 
L 2419 0 
L 2419 1100 
L 313 1100 
L 313 1709 
L 2253 4666 
z
" transform="scale(0.015625)"/>
       </defs>
       <use xlink:href="#DejaVuSans-34"/>
       <use xlink:href="#DejaVuSans-30" x="63.623047"/>
       <use xlink:href="#DejaVuSans-30" x="127.246094"/>
      </g>
     </g>
    </g>
    <g id="text_10">
     <!-- Epochs -->
     <g transform="translate(351.084375 412.756563) scale(0.1 -0.1)">
      <defs>
       <path id="DejaVuSans-45" d="M 628 4666 
L 3578 4666 
L 3578 4134 
L 1259 4134 
L 1259 2753 
L 3481 2753 
L 3481 2222 
L 1259 2222 
L 1259 531 
L 3634 531 
L 3634 0 
L 628 0 
L 628 4666 
z
" transform="scale(0.015625)"/>
       <path id="DejaVuSans-70" d="M 1159 525 
L 1159 -1331 
L 581 -1331 
L 581 3500 
L 1159 3500 
L 1159 2969 
Q 1341 3281 1617 3432 
Q 1894 3584 2278 3584 
Q 2916 3584 3314 3078 
Q 3713 2572 3713 1747 
Q 3713 922 3314 415 
Q 2916 -91 2278 -91 
Q 1894 -91 1617 61 
Q 1341 213 1159 525 
z
M 3116 1747 
Q 3116 2381 2855 2742 
Q 2594 3103 2138 3103 
Q 1681 3103 1420 2742 
Q 1159 2381 1159 1747 
Q 1159 1113 1420 752 
Q 1681 391 2138 391 
Q 2594 391 2855 752 
Q 3116 1113 3116 1747 
z
" transform="scale(0.015625)"/>
       <path id="DejaVuSans-6f" d="M 1959 3097 
Q 1497 3097 1228 2736 
Q 959 2375 959 1747 
Q 959 1119 1226 758 
Q 1494 397 1959 397 
Q 2419 397 2687 759 
Q 2956 1122 2956 1747 
Q 2956 2369 2687 2733 
Q 2419 3097 1959 3097 
z
M 1959 3584 
Q 2709 3584 3137 3096 
Q 3566 2609 3566 1747 
Q 3566 888 3137 398 
Q 2709 -91 1959 -91 
Q 1206 -91 779 398 
Q 353 888 353 1747 
Q 353 2609 779 3096 
Q 1206 3584 1959 3584 
z
" transform="scale(0.015625)"/>
       <path id="DejaVuSans-63" d="M 3122 3366 
L 3122 2828 
Q 2878 2963 2633 3030 
Q 2388 3097 2138 3097 
Q 1578 3097 1268 2742 
Q 959 2388 959 1747 
Q 959 1106 1268 751 
Q 1578 397 2138 397 
Q 2388 397 2633 464 
Q 2878 531 3122 666 
L 3122 134 
Q 2881 22 2623 -34 
Q 2366 -91 2075 -91 
Q 1284 -91 818 406 
Q 353 903 353 1747 
Q 353 2603 823 3093 
Q 1294 3584 2113 3584 
Q 2378 3584 2631 3529 
Q 2884 3475 3122 3366 
z
" transform="scale(0.015625)"/>
       <path id="DejaVuSans-68" d="M 3513 2113 
L 3513 0 
L 2938 0 
L 2938 2094 
Q 2938 2591 2744 2837 
Q 2550 3084 2163 3084 
Q 1697 3084 1428 2787 
Q 1159 2491 1159 1978 
L 1159 0 
L 581 0 
L 581 4863 
L 1159 4863 
L 1159 2956 
Q 1366 3272 1645 3428 
Q 1925 3584 2291 3584 
Q 2894 3584 3203 3211 
Q 3513 2838 3513 2113 
z
" transform="scale(0.015625)"/>
       <path id="DejaVuSans-73" d="M 2834 3397 
L 2834 2853 
Q 2591 2978 2328 3040 
Q 2066 3103 1784 3103 
Q 1356 3103 1142 2972 
Q 928 2841 928 2578 
Q 928 2378 1081 2264 
Q 1234 2150 1697 2047 
L 1894 2003 
Q 2506 1872 2764 1633 
Q 3022 1394 3022 966 
Q 3022 478 2636 193 
Q 2250 -91 1575 -91 
Q 1294 -91 989 -36 
Q 684 19 347 128 
L 347 722 
Q 666 556 975 473 
Q 1284 391 1588 391 
Q 1994 391 2212 530 
Q 2431 669 2431 922 
Q 2431 1156 2273 1281 
Q 2116 1406 1581 1522 
L 1381 1569 
Q 847 1681 609 1914 
Q 372 2147 372 2553 
Q 372 3047 722 3315 
Q 1072 3584 1716 3584 
Q 2034 3584 2315 3537 
Q 2597 3491 2834 3397 
z
" transform="scale(0.015625)"/>
      </defs>
      <use xlink:href="#DejaVuSans-45"/>
      <use xlink:href="#DejaVuSans-70" x="63.183594"/>
      <use xlink:href="#DejaVuSans-6f" x="126.660156"/>
      <use xlink:href="#DejaVuSans-63" x="187.841797"/>
      <use xlink:href="#DejaVuSans-68" x="242.822266"/>
      <use xlink:href="#DejaVuSans-73" x="306.201172"/>
     </g>
    </g>
   </g>
   <g id="matplotlib.axis_2">
    <g id="ytick_1">
     <g id="line2d_19">
      <path d="M 90 360.459697 
L 648 360.459697 
" clip-path="url(#p8910c924a5)" style="fill: none; stroke: #b0b0b0; stroke-width: 0.8; stroke-linecap: square"/>
     </g>
     <g id="line2d_20">
      <defs>
       <path id="m147aeab7fb" d="M 0 0 
L -3.5 0 
" style="stroke: #000000; stroke-width: 0.8"/>
      </defs>
      <g>
       <use xlink:href="#m147aeab7fb" x="90" y="360.459697" style="stroke: #000000; stroke-width: 0.8"/>
      </g>
     </g>
     <g id="text_11">
      <!-- 0.25 -->
      <g transform="translate(60.734375 364.258916) scale(0.1 -0.1)">
       <defs>
        <path id="DejaVuSans-2e" d="M 684 794 
L 1344 794 
L 1344 0 
L 684 0 
L 684 794 
z
" transform="scale(0.015625)"/>
       </defs>
       <use xlink:href="#DejaVuSans-30"/>
       <use xlink:href="#DejaVuSans-2e" x="63.623047"/>
       <use xlink:href="#DejaVuSans-32" x="95.410156"/>
       <use xlink:href="#DejaVuSans-35" x="159.033203"/>
      </g>
     </g>
    </g>
    <g id="ytick_2">
     <g id="line2d_21">
      <path d="M 90 311.890242 
L 648 311.890242 
" clip-path="url(#p8910c924a5)" style="fill: none; stroke: #b0b0b0; stroke-width: 0.8; stroke-linecap: square"/>
     </g>
     <g id="line2d_22">
      <g>
       <use xlink:href="#m147aeab7fb" x="90" y="311.890242" style="stroke: #000000; stroke-width: 0.8"/>
      </g>
     </g>
     <g id="text_12">
      <!-- 0.30 -->
      <g transform="translate(60.734375 315.689461) scale(0.1 -0.1)">
       <use xlink:href="#DejaVuSans-30"/>
       <use xlink:href="#DejaVuSans-2e" x="63.623047"/>
       <use xlink:href="#DejaVuSans-33" x="95.410156"/>
       <use xlink:href="#DejaVuSans-30" x="159.033203"/>
      </g>
     </g>
    </g>
    <g id="ytick_3">
     <g id="line2d_23">
      <path d="M 90 263.320787 
L 648 263.320787 
" clip-path="url(#p8910c924a5)" style="fill: none; stroke: #b0b0b0; stroke-width: 0.8; stroke-linecap: square"/>
     </g>
     <g id="line2d_24">
      <g>
       <use xlink:href="#m147aeab7fb" x="90" y="263.320787" style="stroke: #000000; stroke-width: 0.8"/>
      </g>
     </g>
     <g id="text_13">
      <!-- 0.35 -->
      <g transform="translate(60.734375 267.120006) scale(0.1 -0.1)">
       <use xlink:href="#DejaVuSans-30"/>
       <use xlink:href="#DejaVuSans-2e" x="63.623047"/>
       <use xlink:href="#DejaVuSans-33" x="95.410156"/>
       <use xlink:href="#DejaVuSans-35" x="159.033203"/>
      </g>
     </g>
    </g>
    <g id="ytick_4">
     <g id="line2d_25">
      <path d="M 90 214.751332 
L 648 214.751332 
" clip-path="url(#p8910c924a5)" style="fill: none; stroke: #b0b0b0; stroke-width: 0.8; stroke-linecap: square"/>
     </g>
     <g id="line2d_26">
      <g>
       <use xlink:href="#m147aeab7fb" x="90" y="214.751332" style="stroke: #000000; stroke-width: 0.8"/>
      </g>
     </g>
     <g id="text_14">
      <!-- 0.40 -->
      <g transform="translate(60.734375 218.550551) scale(0.1 -0.1)">
       <use xlink:href="#DejaVuSans-30"/>
       <use xlink:href="#DejaVuSans-2e" x="63.623047"/>
       <use xlink:href="#DejaVuSans-34" x="95.410156"/>
       <use xlink:href="#DejaVuSans-30" x="159.033203"/>
      </g>
     </g>
    </g>
    <g id="ytick_5">
     <g id="line2d_27">
      <path d="M 90 166.181877 
L 648 166.181877 
" clip-path="url(#p8910c924a5)" style="fill: none; stroke: #b0b0b0; stroke-width: 0.8; stroke-linecap: square"/>
     </g>
     <g id="line2d_28">
      <g>
       <use xlink:href="#m147aeab7fb" x="90" y="166.181877" style="stroke: #000000; stroke-width: 0.8"/>
      </g>
     </g>
     <g id="text_15">
      <!-- 0.45 -->
      <g transform="translate(60.734375 169.981096) scale(0.1 -0.1)">
       <use xlink:href="#DejaVuSans-30"/>
       <use xlink:href="#DejaVuSans-2e" x="63.623047"/>
       <use xlink:href="#DejaVuSans-34" x="95.410156"/>
       <use xlink:href="#DejaVuSans-35" x="159.033203"/>
      </g>
     </g>
    </g>
    <g id="ytick_6">
     <g id="line2d_29">
      <path d="M 90 117.612422 
L 648 117.612422 
" clip-path="url(#p8910c924a5)" style="fill: none; stroke: #b0b0b0; stroke-width: 0.8; stroke-linecap: square"/>
     </g>
     <g id="line2d_30">
      <g>
       <use xlink:href="#m147aeab7fb" x="90" y="117.612422" style="stroke: #000000; stroke-width: 0.8"/>
      </g>
     </g>
     <g id="text_16">
      <!-- 0.50 -->
      <g transform="translate(60.734375 121.411641) scale(0.1 -0.1)">
       <use xlink:href="#DejaVuSans-30"/>
       <use xlink:href="#DejaVuSans-2e" x="63.623047"/>
       <use xlink:href="#DejaVuSans-35" x="95.410156"/>
       <use xlink:href="#DejaVuSans-30" x="159.033203"/>
      </g>
     </g>
    </g>
    <g id="ytick_7">
     <g id="line2d_31">
      <path d="M 90 69.042967 
L 648 69.042967 
" clip-path="url(#p8910c924a5)" style="fill: none; stroke: #b0b0b0; stroke-width: 0.8; stroke-linecap: square"/>
     </g>
     <g id="line2d_32">
      <g>
       <use xlink:href="#m147aeab7fb" x="90" y="69.042967" style="stroke: #000000; stroke-width: 0.8"/>
      </g>
     </g>
     <g id="text_17">
      <!-- 0.55 -->
      <g transform="translate(60.734375 72.842186) scale(0.1 -0.1)">
       <use xlink:href="#DejaVuSans-30"/>
       <use xlink:href="#DejaVuSans-2e" x="63.623047"/>
       <use xlink:href="#DejaVuSans-35" x="95.410156"/>
       <use xlink:href="#DejaVuSans-35" x="159.033203"/>
      </g>
     </g>
    </g>
    <g id="text_18">
     <!-- Error -->
     <g transform="translate(54.654688 230.345156) rotate(-90) scale(0.1 -0.1)">
      <defs>
       <path id="DejaVuSans-72" d="M 2631 2963 
Q 2534 3019 2420 3045 
Q 2306 3072 2169 3072 
Q 1681 3072 1420 2755 
Q 1159 2438 1159 1844 
L 1159 0 
L 581 0 
L 581 3500 
L 1159 3500 
L 1159 2956 
Q 1341 3275 1631 3429 
Q 1922 3584 2338 3584 
Q 2397 3584 2469 3576 
Q 2541 3569 2628 3553 
L 2631 2963 
z
" transform="scale(0.015625)"/>
      </defs>
      <use xlink:href="#DejaVuSans-45"/>
      <use xlink:href="#DejaVuSans-72" x="63.183594"/>
      <use xlink:href="#DejaVuSans-72" x="102.546875"/>
      <use xlink:href="#DejaVuSans-6f" x="141.410156"/>
      <use xlink:href="#DejaVuSans-72" x="202.591797"/>
     </g>
    </g>
   </g>
   <g id="line2d_33">
    <path d="M 115.363636 194.100678 
L 116.634997 126.831906 
L 117.906357 66.96 
L 119.177717 100.969519 
L 120.449077 91.506555 
L 121.720437 104.014177 
L 122.991798 102.014279 
L 124.263158 113.604513 
L 125.534518 108.584271 
L 126.805878 123.85941 
L 128.077239 115.659158 
L 129.348599 132.725259 
L 130.619959 123.739351 
L 131.891319 141.087794 
L 133.162679 132.583634 
L 134.43404 148.968196 
L 135.7054 141.901542 
L 136.97676 156.461495 
L 138.24812 151.475844 
L 139.519481 163.662976 
L 140.790841 161.160807 
L 142.062201 170.648858 
L 143.333561 170.042049 
L 144.604921 177.474895 
L 145.876282 178.050095 
L 147.147642 182.911029 
L 149.690362 188.211713 
L 150.961722 191.969952 
L 152.233083 193.438809 
L 153.504443 198.297905 
L 154.775803 198.595931 
L 156.047163 203.328669 
L 157.318524 203.680367 
L 158.589884 207.027107 
L 159.861244 208.684864 
L 161.132604 210.650585 
L 162.403964 213.599201 
L 163.675325 214.190148 
L 164.946685 218.411525 
L 166.218045 217.637413 
L 167.489405 223.109442 
L 168.760766 220.984802 
L 170.032126 227.680872 
L 171.303486 224.225729 
L 172.574846 232.032844 
L 173.846206 227.354717 
L 175.117567 234.9367 
L 176.388927 230.367469 
L 177.660287 237.735372 
L 178.931647 233.260879 
L 180.203008 240.424276 
L 181.474368 236.033014 
L 182.745728 243.000155 
L 184.017088 238.683048 
L 185.288448 245.46103 
L 186.559809 241.211185 
L 187.831169 247.806107 
L 189.102529 243.111989 
L 190.373889 249.09493 
L 191.645249 244.245896 
L 192.91661 250.30402 
L 194.18797 245.148669 
L 195.45933 251.450791 
L 196.73069 246.014973 
L 198.002051 252.536615 
L 199.273411 246.845079 
L 200.544771 253.563188 
L 201.816131 247.639524 
L 203.087491 254.532465 
L 204.358852 248.399048 
L 205.630212 255.446587 
L 206.901572 249.124535 
L 208.172932 256.307822 
L 209.444293 249.816954 
L 210.715653 257.118509 
L 211.987013 250.477304 
L 213.258373 257.88101 
L 214.529733 251.106556 
L 215.801094 258.597667 
L 217.072454 251.705593 
L 218.343814 259.270768 
L 219.615174 252.275142 
L 220.886535 259.902523 
L 222.157895 252.815706 
L 223.429255 260.495043 
L 224.700615 253.327471 
L 225.971975 261.050348 
L 227.243336 253.8102 
L 228.514696 261.570395 
L 229.786056 254.263096 
L 231.057416 262.057155 
L 232.328776 254.684638 
L 233.600137 262.512806 
L 234.871497 255.072383 
L 236.142857 262.940112 
L 237.414217 255.422781 
L 238.685578 263.343249 
L 239.956938 255.731112 
L 241.228298 263.729525 
L 242.499658 255.991888 
L 243.771018 264.113051 
L 245.042379 256.200561 
L 246.313739 264.522543 
L 247.585099 256.358593 
L 248.856459 265.017565 
L 250.12782 256.486312 
L 251.39918 263.234555 
L 252.67054 256.650902 
L 253.9419 260.369597 
L 255.21326 255.368234 
L 256.484621 253.741697 
L 257.755981 244.854024 
L 259.027341 243.336518 
L 260.298701 231.340275 
L 261.570062 229.87396 
L 262.841422 221.115947 
L 264.112782 225.367334 
L 265.384142 220.924208 
L 266.655502 228.332277 
L 267.926863 228.295561 
L 269.198223 233.906388 
L 270.469583 234.898783 
L 271.740943 239.521081 
L 273.012303 240.631205 
L 274.283664 244.305525 
L 275.555024 245.276549 
L 276.826384 248.074505 
L 278.097744 248.816404 
L 279.369105 250.897335 
L 280.640465 251.410101 
L 281.911825 252.934903 
L 283.183185 253.269476 
L 284.454545 254.324143 
L 285.725906 254.604323 
L 286.997266 254.085486 
L 288.268626 255.593094 
L 289.539986 253.812984 
L 290.811347 256.345259 
L 292.082707 253.613988 
L 293.354067 256.288352 
L 294.625427 253.553014 
L 295.896787 256.418249 
L 297.168148 253.65832 
L 298.439508 256.744541 
L 299.710868 253.93356 
L 300.982228 257.255658 
L 302.253589 254.37052 
L 303.524949 257.931942 
L 304.796309 254.960632 
L 306.067669 257.95491 
L 307.339029 255.704782 
L 308.61039 257.324451 
L 309.88175 254.959706 
L 311.15311 255.94072 
L 312.42447 253.520612 
L 313.69583 253.777407 
L 314.967191 251.844284 
L 316.238551 251.263068 
L 317.509911 250.263514 
L 318.781271 248.878786 
L 320.052632 249.323112 
L 321.323992 247.341278 
L 322.595352 249.550812 
L 323.866712 246.543959 
L 325.138072 251.07635 
L 326.409433 247.908822 
L 327.680793 253.520272 
L 328.952153 250.850603 
L 330.223513 256.277011 
L 331.494874 253.622765 
L 332.766234 258.825204 
L 334.037594 256.282567 
L 335.308954 260.844558 
L 336.580314 258.641501 
L 337.851675 262.207746 
L 339.123035 260.623325 
L 340.394395 262.943504 
L 341.665755 262.2683 
L 342.937116 263.199963 
L 344.208476 263.688882 
L 345.479836 263.199572 
L 346.751196 265.023543 
L 348.022556 263.177064 
L 349.293917 266.388378 
L 350.565277 263.31379 
L 351.836637 267.840009 
L 353.107997 263.697252 
L 354.379357 269.363587 
L 355.650718 264.320918 
L 356.922078 270.883195 
L 358.193438 265.110404 
L 359.464798 272.27811 
L 360.736159 265.950719 
L 362.007519 273.390566 
L 363.278879 266.70068 
L 364.550239 274.021878 
L 365.821599 267.196734 
L 367.09296 273.906463 
L 368.36432 267.26064 
L 369.63568 271.80978 
L 370.90704 266.743049 
L 372.178401 266.943866 
L 373.449761 265.666735 
L 374.721121 259.619413 
L 375.992481 264.51674 
L 377.263841 252.751075 
L 378.535202 262.851112 
L 379.806562 249.363734 
L 381.077922 263.09122 
L 382.349282 250.985877 
L 383.620643 266.519977 
L 384.892003 256.172337 
L 386.163363 271.401449 
L 387.434723 262.433011 
L 388.706083 276.109742 
L 389.977444 268.047579 
L 391.248804 279.715776 
L 392.520164 272.256222 
L 393.791524 281.388551 
L 395.062884 275.004225 
L 396.334245 281.077953 
L 397.605605 276.833062 
L 398.876965 280.042123 
L 400.148325 278.791041 
L 401.419686 279.200992 
L 402.691046 281.949608 
L 403.962406 279.376481 
L 405.233766 284.531048 
L 406.505126 274.56725 
L 407.776487 283.963861 
L 409.047847 270.497791 
L 410.319207 285.407727 
L 411.590567 267.769762 
L 412.861928 288.749886 
L 414.133288 266.523404 
L 415.404648 292.907664 
L 416.676008 267.298627 
L 417.947368 294.814916 
L 419.218729 267.13341 
L 420.490089 295.456449 
L 421.761449 266.598278 
L 423.032809 289.872298 
L 424.30417 270.10453 
L 425.57553 283.829005 
L 426.84689 272.786422 
L 428.11825 281.067044 
L 429.38961 276.470981 
L 430.660971 281.135275 
L 431.932331 281.799678 
L 433.203691 283.434938 
L 434.475051 286.645335 
L 435.746411 287.508215 
L 437.017772 289.43385 
L 438.289132 289.30031 
L 439.560492 289.890897 
L 440.831852 286.970088 
L 442.103213 286.901881 
L 443.374573 283.4923 
L 444.645933 278.488315 
L 445.917293 272.717545 
L 447.188653 240.812439 
L 448.460014 253.612431 
L 449.731374 215.287253 
L 451.002734 254.857483 
L 452.274094 220.58504 
L 453.545455 263.24588 
L 454.816815 233.290172 
L 456.088175 269.68695 
L 457.359535 244.20858 
L 458.630895 275.159453 
L 459.902256 253.321176 
L 461.173616 279.92421 
L 462.444976 261.195136 
L 463.716336 284.227364 
L 464.987697 268.184375 
L 466.259057 288.214173 
L 467.530417 274.443694 
L 468.801777 291.124595 
L 470.073137 280.003161 
L 471.344498 293.273096 
L 472.615858 284.824536 
L 473.887218 295.605976 
L 475.158578 288.835532 
L 476.429938 298.057305 
L 477.701299 291.948456 
L 478.972659 300.557712 
L 480.244019 294.070307 
L 481.515379 303.044162 
L 482.78674 295.110622 
L 484.0581 305.466882 
L 485.32946 294.993175 
L 486.60082 307.793806 
L 487.87218 293.678257 
L 489.143541 309.088635 
L 490.414901 291.20272 
L 491.686261 308.89307 
L 492.957621 287.540561 
L 494.228982 308.202319 
L 495.500342 282.893153 
L 496.771702 307.224479 
L 498.043062 278.255113 
L 499.314422 306.297213 
L 500.585783 274.459868 
L 501.857143 305.827807 
L 503.128503 272.308677 
L 504.399863 305.249199 
L 505.671224 272.242001 
L 506.942584 304.845438 
L 508.213944 274.17307 
L 509.485304 306.893863 
L 510.756664 277.643831 
L 512.028025 310.561183 
L 513.299385 282.166085 
L 514.570745 314.001728 
L 515.842105 287.501551 
L 517.113465 316.633905 
L 518.384826 293.7772 
L 519.656186 319.565455 
L 520.927546 300.489995 
L 522.198906 321.73741 
L 523.470267 309.266209 
L 524.741627 319.700313 
L 526.012987 318.203632 
L 527.284347 317.579905 
L 528.555707 327.925452 
L 529.827068 311.485717 
L 531.098428 341.979466 
L 532.369788 294.684346 
L 533.641148 334.156584 
L 534.912509 282.119251 
L 536.183869 311.048266 
L 537.455229 275.485466 
L 538.726589 293.974539 
L 539.997949 279.148385 
L 541.26931 288.724366 
L 542.54067 287.929449 
L 543.81203 291.241947 
L 545.08339 296.8188 
L 546.354751 297.686137 
L 547.626111 303.909811 
L 548.897471 306.011811 
L 550.168831 310.167675 
L 551.440191 315.203508 
L 552.711552 315.228031 
L 553.982912 325.090491 
L 555.254272 319.721316 
L 556.525632 335.843699 
L 557.796992 324.309188 
L 559.068353 347.886995 
L 560.339713 328.569694 
L 561.611073 361.666094 
L 562.882433 331.146927 
L 564.153794 369.36 
L 565.425154 335.177255 
L 566.696514 362.217093 
L 567.967874 338.185622 
L 569.239234 341.424248 
L 570.510595 337.545576 
L 571.781955 311.231289 
L 573.053315 327.982341 
L 574.324675 271.596158 
L 575.596036 288.762035 
L 576.867396 238.569032 
L 578.138756 258.094272 
L 579.410116 223.572263 
L 580.681476 250.5608 
L 581.952837 229.365855 
L 583.224197 259.182293 
L 584.495557 243.497781 
L 585.766917 273.842485 
L 587.038278 258.30013 
L 588.309638 289.114245 
L 589.580998 270.767644 
L 590.852358 303.378344 
L 592.123718 279.657407 
L 593.395079 316.58275 
L 594.666439 287.818412 
L 595.937799 328.033351 
L 597.209159 295.794372 
L 598.480519 334.178706 
L 599.75188 303.907671 
L 601.02324 336.594411 
L 602.2946 312.330405 
L 603.56596 338.66364 
L 604.837321 321.150308 
L 606.108681 340.404559 
L 607.380041 329.761592 
L 608.651401 340.98184 
L 609.922761 336.152595 
L 611.194122 340.476422 
L 612.465482 342.961882 
L 613.736842 339.0721 
L 615.008202 350.152219 
L 616.279563 338.046872 
L 617.550923 355.241224 
L 618.822283 337.453623 
L 620.093643 358.659499 
L 621.365003 337.363916 
L 622.636364 360.325014 
L 622.636364 360.325014 
" clip-path="url(#p8910c924a5)" style="fill: none; stroke: #1f77b4; stroke-width: 1.5; stroke-linecap: square"/>
   </g>
   <g id="patch_3">
    <path d="M 90 384.48 
L 90 51.84 
" style="fill: none; stroke: #000000; stroke-width: 0.8; stroke-linejoin: miter; stroke-linecap: square"/>
   </g>
   <g id="patch_4">
    <path d="M 648 384.48 
L 648 51.84 
" style="fill: none; stroke: #000000; stroke-width: 0.8; stroke-linejoin: miter; stroke-linecap: square"/>
   </g>
   <g id="patch_5">
    <path d="M 90 384.48 
L 648 384.48 
" style="fill: none; stroke: #000000; stroke-width: 0.8; stroke-linejoin: miter; stroke-linecap: square"/>
   </g>
   <g id="patch_6">
    <path d="M 90 51.84 
L 648 51.84 
" style="fill: none; stroke: #000000; stroke-width: 0.8; stroke-linejoin: miter; stroke-linecap: square"/>
   </g>
   <g id="text_19">
    <!-- Training Error vs. Epoch Number (Up to Epoch 400) -->
    <g transform="translate(215.660625 45.84) scale(0.12 -0.12)">
     <defs>
      <path id="DejaVuSans-54" d="M -19 4666 
L 3928 4666 
L 3928 4134 
L 2272 4134 
L 2272 0 
L 1638 0 
L 1638 4134 
L -19 4134 
L -19 4666 
z
" transform="scale(0.015625)"/>
      <path id="DejaVuSans-61" d="M 2194 1759 
Q 1497 1759 1228 1600 
Q 959 1441 959 1056 
Q 959 750 1161 570 
Q 1363 391 1709 391 
Q 2188 391 2477 730 
Q 2766 1069 2766 1631 
L 2766 1759 
L 2194 1759 
z
M 3341 1997 
L 3341 0 
L 2766 0 
L 2766 531 
Q 2569 213 2275 61 
Q 1981 -91 1556 -91 
Q 1019 -91 701 211 
Q 384 513 384 1019 
Q 384 1609 779 1909 
Q 1175 2209 1959 2209 
L 2766 2209 
L 2766 2266 
Q 2766 2663 2505 2880 
Q 2244 3097 1772 3097 
Q 1472 3097 1187 3025 
Q 903 2953 641 2809 
L 641 3341 
Q 956 3463 1253 3523 
Q 1550 3584 1831 3584 
Q 2591 3584 2966 3190 
Q 3341 2797 3341 1997 
z
" transform="scale(0.015625)"/>
      <path id="DejaVuSans-69" d="M 603 3500 
L 1178 3500 
L 1178 0 
L 603 0 
L 603 3500 
z
M 603 4863 
L 1178 4863 
L 1178 4134 
L 603 4134 
L 603 4863 
z
" transform="scale(0.015625)"/>
      <path id="DejaVuSans-6e" d="M 3513 2113 
L 3513 0 
L 2938 0 
L 2938 2094 
Q 2938 2591 2744 2837 
Q 2550 3084 2163 3084 
Q 1697 3084 1428 2787 
Q 1159 2491 1159 1978 
L 1159 0 
L 581 0 
L 581 3500 
L 1159 3500 
L 1159 2956 
Q 1366 3272 1645 3428 
Q 1925 3584 2291 3584 
Q 2894 3584 3203 3211 
Q 3513 2838 3513 2113 
z
" transform="scale(0.015625)"/>
      <path id="DejaVuSans-67" d="M 2906 1791 
Q 2906 2416 2648 2759 
Q 2391 3103 1925 3103 
Q 1463 3103 1205 2759 
Q 947 2416 947 1791 
Q 947 1169 1205 825 
Q 1463 481 1925 481 
Q 2391 481 2648 825 
Q 2906 1169 2906 1791 
z
M 3481 434 
Q 3481 -459 3084 -895 
Q 2688 -1331 1869 -1331 
Q 1566 -1331 1297 -1286 
Q 1028 -1241 775 -1147 
L 775 -588 
Q 1028 -725 1275 -790 
Q 1522 -856 1778 -856 
Q 2344 -856 2625 -561 
Q 2906 -266 2906 331 
L 2906 616 
Q 2728 306 2450 153 
Q 2172 0 1784 0 
Q 1141 0 747 490 
Q 353 981 353 1791 
Q 353 2603 747 3093 
Q 1141 3584 1784 3584 
Q 2172 3584 2450 3431 
Q 2728 3278 2906 2969 
L 2906 3500 
L 3481 3500 
L 3481 434 
z
" transform="scale(0.015625)"/>
      <path id="DejaVuSans-20" transform="scale(0.015625)"/>
      <path id="DejaVuSans-76" d="M 191 3500 
L 800 3500 
L 1894 563 
L 2988 3500 
L 3597 3500 
L 2284 0 
L 1503 0 
L 191 3500 
z
" transform="scale(0.015625)"/>
      <path id="DejaVuSans-4e" d="M 628 4666 
L 1478 4666 
L 3547 763 
L 3547 4666 
L 4159 4666 
L 4159 0 
L 3309 0 
L 1241 3903 
L 1241 0 
L 628 0 
L 628 4666 
z
" transform="scale(0.015625)"/>
      <path id="DejaVuSans-75" d="M 544 1381 
L 544 3500 
L 1119 3500 
L 1119 1403 
Q 1119 906 1312 657 
Q 1506 409 1894 409 
Q 2359 409 2629 706 
Q 2900 1003 2900 1516 
L 2900 3500 
L 3475 3500 
L 3475 0 
L 2900 0 
L 2900 538 
Q 2691 219 2414 64 
Q 2138 -91 1772 -91 
Q 1169 -91 856 284 
Q 544 659 544 1381 
z
M 1991 3584 
L 1991 3584 
z
" transform="scale(0.015625)"/>
      <path id="DejaVuSans-6d" d="M 3328 2828 
Q 3544 3216 3844 3400 
Q 4144 3584 4550 3584 
Q 5097 3584 5394 3201 
Q 5691 2819 5691 2113 
L 5691 0 
L 5113 0 
L 5113 2094 
Q 5113 2597 4934 2840 
Q 4756 3084 4391 3084 
Q 3944 3084 3684 2787 
Q 3425 2491 3425 1978 
L 3425 0 
L 2847 0 
L 2847 2094 
Q 2847 2600 2669 2842 
Q 2491 3084 2119 3084 
Q 1678 3084 1418 2786 
Q 1159 2488 1159 1978 
L 1159 0 
L 581 0 
L 581 3500 
L 1159 3500 
L 1159 2956 
Q 1356 3278 1631 3431 
Q 1906 3584 2284 3584 
Q 2666 3584 2933 3390 
Q 3200 3197 3328 2828 
z
" transform="scale(0.015625)"/>
      <path id="DejaVuSans-62" d="M 3116 1747 
Q 3116 2381 2855 2742 
Q 2594 3103 2138 3103 
Q 1681 3103 1420 2742 
Q 1159 2381 1159 1747 
Q 1159 1113 1420 752 
Q 1681 391 2138 391 
Q 2594 391 2855 752 
Q 3116 1113 3116 1747 
z
M 1159 2969 
Q 1341 3281 1617 3432 
Q 1894 3584 2278 3584 
Q 2916 3584 3314 3078 
Q 3713 2572 3713 1747 
Q 3713 922 3314 415 
Q 2916 -91 2278 -91 
Q 1894 -91 1617 61 
Q 1341 213 1159 525 
L 1159 0 
L 581 0 
L 581 4863 
L 1159 4863 
L 1159 2969 
z
" transform="scale(0.015625)"/>
      <path id="DejaVuSans-65" d="M 3597 1894 
L 3597 1613 
L 953 1613 
Q 991 1019 1311 708 
Q 1631 397 2203 397 
Q 2534 397 2845 478 
Q 3156 559 3463 722 
L 3463 178 
Q 3153 47 2828 -22 
Q 2503 -91 2169 -91 
Q 1331 -91 842 396 
Q 353 884 353 1716 
Q 353 2575 817 3079 
Q 1281 3584 2069 3584 
Q 2775 3584 3186 3129 
Q 3597 2675 3597 1894 
z
M 3022 2063 
Q 3016 2534 2758 2815 
Q 2500 3097 2075 3097 
Q 1594 3097 1305 2825 
Q 1016 2553 972 2059 
L 3022 2063 
z
" transform="scale(0.015625)"/>
      <path id="DejaVuSans-28" d="M 1984 4856 
Q 1566 4138 1362 3434 
Q 1159 2731 1159 2009 
Q 1159 1288 1364 580 
Q 1569 -128 1984 -844 
L 1484 -844 
Q 1016 -109 783 600 
Q 550 1309 550 2009 
Q 550 2706 781 3412 
Q 1013 4119 1484 4856 
L 1984 4856 
z
" transform="scale(0.015625)"/>
      <path id="DejaVuSans-55" d="M 556 4666 
L 1191 4666 
L 1191 1831 
Q 1191 1081 1462 751 
Q 1734 422 2344 422 
Q 2950 422 3222 751 
Q 3494 1081 3494 1831 
L 3494 4666 
L 4128 4666 
L 4128 1753 
Q 4128 841 3676 375 
Q 3225 -91 2344 -91 
Q 1459 -91 1007 375 
Q 556 841 556 1753 
L 556 4666 
z
" transform="scale(0.015625)"/>
      <path id="DejaVuSans-74" d="M 1172 4494 
L 1172 3500 
L 2356 3500 
L 2356 3053 
L 1172 3053 
L 1172 1153 
Q 1172 725 1289 603 
Q 1406 481 1766 481 
L 2356 481 
L 2356 0 
L 1766 0 
Q 1100 0 847 248 
Q 594 497 594 1153 
L 594 3053 
L 172 3053 
L 172 3500 
L 594 3500 
L 594 4494 
L 1172 4494 
z
" transform="scale(0.015625)"/>
      <path id="DejaVuSans-29" d="M 513 4856 
L 1013 4856 
Q 1481 4119 1714 3412 
Q 1947 2706 1947 2009 
Q 1947 1309 1714 600 
Q 1481 -109 1013 -844 
L 513 -844 
Q 928 -128 1133 580 
Q 1338 1288 1338 2009 
Q 1338 2731 1133 3434 
Q 928 4138 513 4856 
z
" transform="scale(0.015625)"/>
     </defs>
     <use xlink:href="#DejaVuSans-54"/>
     <use xlink:href="#DejaVuSans-72" x="46.333984"/>
     <use xlink:href="#DejaVuSans-61" x="87.447266"/>
     <use xlink:href="#DejaVuSans-69" x="148.726562"/>
     <use xlink:href="#DejaVuSans-6e" x="176.509766"/>
     <use xlink:href="#DejaVuSans-69" x="239.888672"/>
     <use xlink:href="#DejaVuSans-6e" x="267.671875"/>
     <use xlink:href="#DejaVuSans-67" x="331.050781"/>
     <use xlink:href="#DejaVuSans-20" x="394.527344"/>
     <use xlink:href="#DejaVuSans-45" x="426.314453"/>
     <use xlink:href="#DejaVuSans-72" x="489.498047"/>
     <use xlink:href="#DejaVuSans-72" x="528.861328"/>
     <use xlink:href="#DejaVuSans-6f" x="567.724609"/>
     <use xlink:href="#DejaVuSans-72" x="628.90625"/>
     <use xlink:href="#DejaVuSans-20" x="670.019531"/>
     <use xlink:href="#DejaVuSans-76" x="701.806641"/>
     <use xlink:href="#DejaVuSans-73" x="760.986328"/>
     <use xlink:href="#DejaVuSans-2e" x="813.085938"/>
     <use xlink:href="#DejaVuSans-20" x="844.873047"/>
     <use xlink:href="#DejaVuSans-45" x="876.660156"/>
     <use xlink:href="#DejaVuSans-70" x="939.84375"/>
     <use xlink:href="#DejaVuSans-6f" x="1003.320312"/>
     <use xlink:href="#DejaVuSans-63" x="1064.501953"/>
     <use xlink:href="#DejaVuSans-68" x="1119.482422"/>
     <use xlink:href="#DejaVuSans-20" x="1182.861328"/>
     <use xlink:href="#DejaVuSans-4e" x="1214.648438"/>
     <use xlink:href="#DejaVuSans-75" x="1289.453125"/>
     <use xlink:href="#DejaVuSans-6d" x="1352.832031"/>
     <use xlink:href="#DejaVuSans-62" x="1450.244141"/>
     <use xlink:href="#DejaVuSans-65" x="1513.720703"/>
     <use xlink:href="#DejaVuSans-72" x="1575.244141"/>
     <use xlink:href="#DejaVuSans-20" x="1616.357422"/>
     <use xlink:href="#DejaVuSans-28" x="1648.144531"/>
     <use xlink:href="#DejaVuSans-55" x="1687.158203"/>
     <use xlink:href="#DejaVuSans-70" x="1760.351562"/>
     <use xlink:href="#DejaVuSans-20" x="1823.828125"/>
     <use xlink:href="#DejaVuSans-74" x="1855.615234"/>
     <use xlink:href="#DejaVuSans-6f" x="1894.824219"/>
     <use xlink:href="#DejaVuSans-20" x="1956.005859"/>
     <use xlink:href="#DejaVuSans-45" x="1987.792969"/>
     <use xlink:href="#DejaVuSans-70" x="2050.976562"/>
     <use xlink:href="#DejaVuSans-6f" x="2114.453125"/>
     <use xlink:href="#DejaVuSans-63" x="2175.634766"/>
     <use xlink:href="#DejaVuSans-68" x="2230.615234"/>
     <use xlink:href="#DejaVuSans-20" x="2293.994141"/>
     <use xlink:href="#DejaVuSans-34" x="2325.78125"/>
     <use xlink:href="#DejaVuSans-30" x="2389.404297"/>
     <use xlink:href="#DejaVuSans-30" x="2453.027344"/>
     <use xlink:href="#DejaVuSans-29" x="2516.650391"/>
    </g>
   </g>
  </g>
 </g>
 <defs>
  <clipPath id="p8910c924a5">
   <rect x="90" y="51.84" width="558" height="332.64"/>
  </clipPath>
 </defs>
</svg>
