<?xml version="1.0" encoding="utf-8" standalone="no"?>
<!DOCTYPE svg PUBLIC "-//W3C//DTD SVG 1.1//EN"
  "http://www.w3.org/Graphics/SVG/1.1/DTD/svg11.dtd">
<svg xmlns:xlink="http://www.w3.org/1999/xlink" width="720pt" height="432pt" viewBox="0 0 720 432" xmlns="http://www.w3.org/2000/svg" version="1.1">
 <metadata>
  <rdf:RDF xmlns:dc="http://purl.org/dc/elements/1.1/" xmlns:cc="http://creativecommons.org/ns#" xmlns:rdf="http://www.w3.org/1999/02/22-rdf-syntax-ns#">
   <cc:Work>
    <dc:type rdf:resource="http://purl.org/dc/dcmitype/StillImage"/>
    <dc:date>2023-10-27T14:15:17.250415</dc:date>
    <dc:format>image/svg+xml</dc:format>
    <dc:creator>
     <cc:Agent>
      <dc:title>Matplotlib v3.8.0, https://matplotlib.org/</dc:title>
     </cc:Agent>
    </dc:creator>
   </cc:Work>
  </rdf:RDF>
 </metadata>
 <defs>
  <style type="text/css">*{stroke-linejoin: round; stroke-linecap: butt}</style>
 </defs>
 <g id="figure_1">
  <g id="patch_1">
   <path d="M 0 432 
L 720 432 
L 720 0 
L 0 0 
z
" style="fill: #ffffff"/>
  </g>
  <g id="axes_1">
   <g id="patch_2">
    <path d="M 90 384.48 
L 648 384.48 
L 648 51.84 
L 90 51.84 
z
" style="fill: #ffffff"/>
   </g>
   <g id="matplotlib.axis_1">
    <g id="xtick_1">
     <g id="line2d_1">
      <path d="M 115.363636 384.48 
L 115.363636 51.84 
" clip-path="url(#pf661d7fcdf)" style="fill: none; stroke: #b0b0b0; stroke-width: 0.8; stroke-linecap: square"/>
     </g>
     <g id="line2d_2">
      <defs>
       <path id="mdd498468a2" d="M 0 0 
L 0 3.5 
" style="stroke: #000000; stroke-width: 0.8"/>
      </defs>
      <g>
       <use xlink:href="#mdd498468a2" x="115.363636" y="384.48" style="stroke: #000000; stroke-width: 0.8"/>
      </g>
     </g>
     <g id="text_1">
      <!-- 0 -->
      <g transform="translate(112.182386 399.078438) scale(0.1 -0.1)">
       <defs>
        <path id="DejaVuSans-30" d="M 2034 4250 
Q 1547 4250 1301 3770 
Q 1056 3291 1056 2328 
Q 1056 1369 1301 889 
Q 1547 409 2034 409 
Q 2525 409 2770 889 
Q 3016 1369 3016 2328 
Q 3016 3291 2770 3770 
Q 2525 4250 2034 4250 
z
M 2034 4750 
Q 2819 4750 3233 4129 
Q 3647 3509 3647 2328 
Q 3647 1150 3233 529 
Q 2819 -91 2034 -91 
Q 1250 -91 836 529 
Q 422 1150 422 2328 
Q 422 3509 836 4129 
Q 1250 4750 2034 4750 
z
" transform="scale(0.015625)"/>
       </defs>
       <use xlink:href="#DejaVuSans-30"/>
      </g>
     </g>
    </g>
    <g id="xtick_2">
     <g id="line2d_3">
      <path d="M 216.919738 384.48 
L 216.919738 51.84 
" clip-path="url(#pf661d7fcdf)" style="fill: none; stroke: #b0b0b0; stroke-width: 0.8; stroke-linecap: square"/>
     </g>
     <g id="line2d_4">
      <g>
       <use xlink:href="#mdd498468a2" x="216.919738" y="384.48" style="stroke: #000000; stroke-width: 0.8"/>
      </g>
     </g>
     <g id="text_2">
      <!-- 200 -->
      <g transform="translate(207.375988 399.078438) scale(0.1 -0.1)">
       <defs>
        <path id="DejaVuSans-32" d="M 1228 531 
L 3431 531 
L 3431 0 
L 469 0 
L 469 531 
Q 828 903 1448 1529 
Q 2069 2156 2228 2338 
Q 2531 2678 2651 2914 
Q 2772 3150 2772 3378 
Q 2772 3750 2511 3984 
Q 2250 4219 1831 4219 
Q 1534 4219 1204 4116 
Q 875 4013 500 3803 
L 500 4441 
Q 881 4594 1212 4672 
Q 1544 4750 1819 4750 
Q 2544 4750 2975 4387 
Q 3406 4025 3406 3419 
Q 3406 3131 3298 2873 
Q 3191 2616 2906 2266 
Q 2828 2175 2409 1742 
Q 1991 1309 1228 531 
z
" transform="scale(0.015625)"/>
       </defs>
       <use xlink:href="#DejaVuSans-32"/>
       <use xlink:href="#DejaVuSans-30" x="63.623047"/>
       <use xlink:href="#DejaVuSans-30" x="127.246094"/>
      </g>
     </g>
    </g>
    <g id="xtick_3">
     <g id="line2d_5">
      <path d="M 318.475839 384.48 
L 318.475839 51.84 
" clip-path="url(#pf661d7fcdf)" style="fill: none; stroke: #b0b0b0; stroke-width: 0.8; stroke-linecap: square"/>
     </g>
     <g id="line2d_6">
      <g>
       <use xlink:href="#mdd498468a2" x="318.475839" y="384.48" style="stroke: #000000; stroke-width: 0.8"/>
      </g>
     </g>
     <g id="text_3">
      <!-- 400 -->
      <g transform="translate(308.932089 399.078438) scale(0.1 -0.1)">
       <defs>
        <path id="DejaVuSans-34" d="M 2419 4116 
L 825 1625 
L 2419 1625 
L 2419 4116 
z
M 2253 4666 
L 3047 4666 
L 3047 1625 
L 3713 1625 
L 3713 1100 
L 3047 1100 
L 3047 0 
L 2419 0 
L 2419 1100 
L 313 1100 
L 313 1709 
L 2253 4666 
z
" transform="scale(0.015625)"/>
       </defs>
       <use xlink:href="#DejaVuSans-34"/>
       <use xlink:href="#DejaVuSans-30" x="63.623047"/>
       <use xlink:href="#DejaVuSans-30" x="127.246094"/>
      </g>
     </g>
    </g>
    <g id="xtick_4">
     <g id="line2d_7">
      <path d="M 420.031941 384.48 
L 420.031941 51.84 
" clip-path="url(#pf661d7fcdf)" style="fill: none; stroke: #b0b0b0; stroke-width: 0.8; stroke-linecap: square"/>
     </g>
     <g id="line2d_8">
      <g>
       <use xlink:href="#mdd498468a2" x="420.031941" y="384.48" style="stroke: #000000; stroke-width: 0.8"/>
      </g>
     </g>
     <g id="text_4">
      <!-- 600 -->
      <g transform="translate(410.488191 399.078438) scale(0.1 -0.1)">
       <defs>
        <path id="DejaVuSans-36" d="M 2113 2584 
Q 1688 2584 1439 2293 
Q 1191 2003 1191 1497 
Q 1191 994 1439 701 
Q 1688 409 2113 409 
Q 2538 409 2786 701 
Q 3034 994 3034 1497 
Q 3034 2003 2786 2293 
Q 2538 2584 2113 2584 
z
M 3366 4563 
L 3366 3988 
Q 3128 4100 2886 4159 
Q 2644 4219 2406 4219 
Q 1781 4219 1451 3797 
Q 1122 3375 1075 2522 
Q 1259 2794 1537 2939 
Q 1816 3084 2150 3084 
Q 2853 3084 3261 2657 
Q 3669 2231 3669 1497 
Q 3669 778 3244 343 
Q 2819 -91 2113 -91 
Q 1303 -91 875 529 
Q 447 1150 447 2328 
Q 447 3434 972 4092 
Q 1497 4750 2381 4750 
Q 2619 4750 2861 4703 
Q 3103 4656 3366 4563 
z
" transform="scale(0.015625)"/>
       </defs>
       <use xlink:href="#DejaVuSans-36"/>
       <use xlink:href="#DejaVuSans-30" x="63.623047"/>
       <use xlink:href="#DejaVuSans-30" x="127.246094"/>
      </g>
     </g>
    </g>
    <g id="xtick_5">
     <g id="line2d_9">
      <path d="M 521.588043 384.48 
L 521.588043 51.84 
" clip-path="url(#pf661d7fcdf)" style="fill: none; stroke: #b0b0b0; stroke-width: 0.8; stroke-linecap: square"/>
     </g>
     <g id="line2d_10">
      <g>
       <use xlink:href="#mdd498468a2" x="521.588043" y="384.48" style="stroke: #000000; stroke-width: 0.8"/>
      </g>
     </g>
     <g id="text_5">
      <!-- 800 -->
      <g transform="translate(512.044293 399.078438) scale(0.1 -0.1)">
       <defs>
        <path id="DejaVuSans-38" d="M 2034 2216 
Q 1584 2216 1326 1975 
Q 1069 1734 1069 1313 
Q 1069 891 1326 650 
Q 1584 409 2034 409 
Q 2484 409 2743 651 
Q 3003 894 3003 1313 
Q 3003 1734 2745 1975 
Q 2488 2216 2034 2216 
z
M 1403 2484 
Q 997 2584 770 2862 
Q 544 3141 544 3541 
Q 544 4100 942 4425 
Q 1341 4750 2034 4750 
Q 2731 4750 3128 4425 
Q 3525 4100 3525 3541 
Q 3525 3141 3298 2862 
Q 3072 2584 2669 2484 
Q 3125 2378 3379 2068 
Q 3634 1759 3634 1313 
Q 3634 634 3220 271 
Q 2806 -91 2034 -91 
Q 1263 -91 848 271 
Q 434 634 434 1313 
Q 434 1759 690 2068 
Q 947 2378 1403 2484 
z
M 1172 3481 
Q 1172 3119 1398 2916 
Q 1625 2713 2034 2713 
Q 2441 2713 2670 2916 
Q 2900 3119 2900 3481 
Q 2900 3844 2670 4047 
Q 2441 4250 2034 4250 
Q 1625 4250 1398 4047 
Q 1172 3844 1172 3481 
z
" transform="scale(0.015625)"/>
       </defs>
       <use xlink:href="#DejaVuSans-38"/>
       <use xlink:href="#DejaVuSans-30" x="63.623047"/>
       <use xlink:href="#DejaVuSans-30" x="127.246094"/>
      </g>
     </g>
    </g>
    <g id="xtick_6">
     <g id="line2d_11">
      <path d="M 623.144144 384.48 
L 623.144144 51.84 
" clip-path="url(#pf661d7fcdf)" style="fill: none; stroke: #b0b0b0; stroke-width: 0.8; stroke-linecap: square"/>
     </g>
     <g id="line2d_12">
      <g>
       <use xlink:href="#mdd498468a2" x="623.144144" y="384.48" style="stroke: #000000; stroke-width: 0.8"/>
      </g>
     </g>
     <g id="text_6">
      <!-- 1000 -->
      <g transform="translate(610.419144 399.078438) scale(0.1 -0.1)">
       <defs>
        <path id="DejaVuSans-31" d="M 794 531 
L 1825 531 
L 1825 4091 
L 703 3866 
L 703 4441 
L 1819 4666 
L 2450 4666 
L 2450 531 
L 3481 531 
L 3481 0 
L 794 0 
L 794 531 
z
" transform="scale(0.015625)"/>
       </defs>
       <use xlink:href="#DejaVuSans-31"/>
       <use xlink:href="#DejaVuSans-30" x="63.623047"/>
       <use xlink:href="#DejaVuSans-30" x="127.246094"/>
       <use xlink:href="#DejaVuSans-30" x="190.869141"/>
      </g>
     </g>
    </g>
    <g id="text_7">
     <!-- Epochs -->
     <g transform="translate(351.084375 412.756563) scale(0.1 -0.1)">
      <defs>
       <path id="DejaVuSans-45" d="M 628 4666 
L 3578 4666 
L 3578 4134 
L 1259 4134 
L 1259 2753 
L 3481 2753 
L 3481 2222 
L 1259 2222 
L 1259 531 
L 3634 531 
L 3634 0 
L 628 0 
L 628 4666 
z
" transform="scale(0.015625)"/>
       <path id="DejaVuSans-70" d="M 1159 525 
L 1159 -1331 
L 581 -1331 
L 581 3500 
L 1159 3500 
L 1159 2969 
Q 1341 3281 1617 3432 
Q 1894 3584 2278 3584 
Q 2916 3584 3314 3078 
Q 3713 2572 3713 1747 
Q 3713 922 3314 415 
Q 2916 -91 2278 -91 
Q 1894 -91 1617 61 
Q 1341 213 1159 525 
z
M 3116 1747 
Q 3116 2381 2855 2742 
Q 2594 3103 2138 3103 
Q 1681 3103 1420 2742 
Q 1159 2381 1159 1747 
Q 1159 1113 1420 752 
Q 1681 391 2138 391 
Q 2594 391 2855 752 
Q 3116 1113 3116 1747 
z
" transform="scale(0.015625)"/>
       <path id="DejaVuSans-6f" d="M 1959 3097 
Q 1497 3097 1228 2736 
Q 959 2375 959 1747 
Q 959 1119 1226 758 
Q 1494 397 1959 397 
Q 2419 397 2687 759 
Q 2956 1122 2956 1747 
Q 2956 2369 2687 2733 
Q 2419 3097 1959 3097 
z
M 1959 3584 
Q 2709 3584 3137 3096 
Q 3566 2609 3566 1747 
Q 3566 888 3137 398 
Q 2709 -91 1959 -91 
Q 1206 -91 779 398 
Q 353 888 353 1747 
Q 353 2609 779 3096 
Q 1206 3584 1959 3584 
z
" transform="scale(0.015625)"/>
       <path id="DejaVuSans-63" d="M 3122 3366 
L 3122 2828 
Q 2878 2963 2633 3030 
Q 2388 3097 2138 3097 
Q 1578 3097 1268 2742 
Q 959 2388 959 1747 
Q 959 1106 1268 751 
Q 1578 397 2138 397 
Q 2388 397 2633 464 
Q 2878 531 3122 666 
L 3122 134 
Q 2881 22 2623 -34 
Q 2366 -91 2075 -91 
Q 1284 -91 818 406 
Q 353 903 353 1747 
Q 353 2603 823 3093 
Q 1294 3584 2113 3584 
Q 2378 3584 2631 3529 
Q 2884 3475 3122 3366 
z
" transform="scale(0.015625)"/>
       <path id="DejaVuSans-68" d="M 3513 2113 
L 3513 0 
L 2938 0 
L 2938 2094 
Q 2938 2591 2744 2837 
Q 2550 3084 2163 3084 
Q 1697 3084 1428 2787 
Q 1159 2491 1159 1978 
L 1159 0 
L 581 0 
L 581 4863 
L 1159 4863 
L 1159 2956 
Q 1366 3272 1645 3428 
Q 1925 3584 2291 3584 
Q 2894 3584 3203 3211 
Q 3513 2838 3513 2113 
z
" transform="scale(0.015625)"/>
       <path id="DejaVuSans-73" d="M 2834 3397 
L 2834 2853 
Q 2591 2978 2328 3040 
Q 2066 3103 1784 3103 
Q 1356 3103 1142 2972 
Q 928 2841 928 2578 
Q 928 2378 1081 2264 
Q 1234 2150 1697 2047 
L 1894 2003 
Q 2506 1872 2764 1633 
Q 3022 1394 3022 966 
Q 3022 478 2636 193 
Q 2250 -91 1575 -91 
Q 1294 -91 989 -36 
Q 684 19 347 128 
L 347 722 
Q 666 556 975 473 
Q 1284 391 1588 391 
Q 1994 391 2212 530 
Q 2431 669 2431 922 
Q 2431 1156 2273 1281 
Q 2116 1406 1581 1522 
L 1381 1569 
Q 847 1681 609 1914 
Q 372 2147 372 2553 
Q 372 3047 722 3315 
Q 1072 3584 1716 3584 
Q 2034 3584 2315 3537 
Q 2597 3491 2834 3397 
z
" transform="scale(0.015625)"/>
      </defs>
      <use xlink:href="#DejaVuSans-45"/>
      <use xlink:href="#DejaVuSans-70" x="63.183594"/>
      <use xlink:href="#DejaVuSans-6f" x="126.660156"/>
      <use xlink:href="#DejaVuSans-63" x="187.841797"/>
      <use xlink:href="#DejaVuSans-68" x="242.822266"/>
      <use xlink:href="#DejaVuSans-73" x="306.201172"/>
     </g>
    </g>
   </g>
   <g id="matplotlib.axis_2">
    <g id="ytick_1">
     <g id="line2d_13">
      <path d="M 90 355.173207 
L 648 355.173207 
" clip-path="url(#pf661d7fcdf)" style="fill: none; stroke: #b0b0b0; stroke-width: 0.8; stroke-linecap: square"/>
     </g>
     <g id="line2d_14">
      <defs>
       <path id="mb792c1858d" d="M 0 0 
L -3.5 0 
" style="stroke: #000000; stroke-width: 0.8"/>
      </defs>
      <g>
       <use xlink:href="#mb792c1858d" x="90" y="355.173207" style="stroke: #000000; stroke-width: 0.8"/>
      </g>
     </g>
     <g id="text_8">
      <!-- 0.25 -->
      <g transform="translate(60.734375 358.972425) scale(0.1 -0.1)">
       <defs>
        <path id="DejaVuSans-2e" d="M 684 794 
L 1344 794 
L 1344 0 
L 684 0 
L 684 794 
z
" transform="scale(0.015625)"/>
        <path id="DejaVuSans-35" d="M 691 4666 
L 3169 4666 
L 3169 4134 
L 1269 4134 
L 1269 2991 
Q 1406 3038 1543 3061 
Q 1681 3084 1819 3084 
Q 2600 3084 3056 2656 
Q 3513 2228 3513 1497 
Q 3513 744 3044 326 
Q 2575 -91 1722 -91 
Q 1428 -91 1123 -41 
Q 819 9 494 109 
L 494 744 
Q 775 591 1075 516 
Q 1375 441 1709 441 
Q 2250 441 2565 725 
Q 2881 1009 2881 1497 
Q 2881 1984 2565 2268 
Q 2250 2553 1709 2553 
Q 1456 2553 1204 2497 
Q 953 2441 691 2322 
L 691 4666 
z
" transform="scale(0.015625)"/>
       </defs>
       <use xlink:href="#DejaVuSans-30"/>
       <use xlink:href="#DejaVuSans-2e" x="63.623047"/>
       <use xlink:href="#DejaVuSans-32" x="95.410156"/>
       <use xlink:href="#DejaVuSans-35" x="159.033203"/>
      </g>
     </g>
    </g>
    <g id="ytick_2">
     <g id="line2d_15">
      <path d="M 90 307.47858 
L 648 307.47858 
" clip-path="url(#pf661d7fcdf)" style="fill: none; stroke: #b0b0b0; stroke-width: 0.8; stroke-linecap: square"/>
     </g>
     <g id="line2d_16">
      <g>
       <use xlink:href="#mb792c1858d" x="90" y="307.47858" style="stroke: #000000; stroke-width: 0.8"/>
      </g>
     </g>
     <g id="text_9">
      <!-- 0.30 -->
      <g transform="translate(60.734375 311.277799) scale(0.1 -0.1)">
       <defs>
        <path id="DejaVuSans-33" d="M 2597 2516 
Q 3050 2419 3304 2112 
Q 3559 1806 3559 1356 
Q 3559 666 3084 287 
Q 2609 -91 1734 -91 
Q 1441 -91 1130 -33 
Q 819 25 488 141 
L 488 750 
Q 750 597 1062 519 
Q 1375 441 1716 441 
Q 2309 441 2620 675 
Q 2931 909 2931 1356 
Q 2931 1769 2642 2001 
Q 2353 2234 1838 2234 
L 1294 2234 
L 1294 2753 
L 1863 2753 
Q 2328 2753 2575 2939 
Q 2822 3125 2822 3475 
Q 2822 3834 2567 4026 
Q 2313 4219 1838 4219 
Q 1578 4219 1281 4162 
Q 984 4106 628 3988 
L 628 4550 
Q 988 4650 1302 4700 
Q 1616 4750 1894 4750 
Q 2613 4750 3031 4423 
Q 3450 4097 3450 3541 
Q 3450 3153 3228 2886 
Q 3006 2619 2597 2516 
z
" transform="scale(0.015625)"/>
       </defs>
       <use xlink:href="#DejaVuSans-30"/>
       <use xlink:href="#DejaVuSans-2e" x="63.623047"/>
       <use xlink:href="#DejaVuSans-33" x="95.410156"/>
       <use xlink:href="#DejaVuSans-30" x="159.033203"/>
      </g>
     </g>
    </g>
    <g id="ytick_3">
     <g id="line2d_17">
      <path d="M 90 259.783954 
L 648 259.783954 
" clip-path="url(#pf661d7fcdf)" style="fill: none; stroke: #b0b0b0; stroke-width: 0.8; stroke-linecap: square"/>
     </g>
     <g id="line2d_18">
      <g>
       <use xlink:href="#mb792c1858d" x="90" y="259.783954" style="stroke: #000000; stroke-width: 0.8"/>
      </g>
     </g>
     <g id="text_10">
      <!-- 0.35 -->
      <g transform="translate(60.734375 263.583173) scale(0.1 -0.1)">
       <use xlink:href="#DejaVuSans-30"/>
       <use xlink:href="#DejaVuSans-2e" x="63.623047"/>
       <use xlink:href="#DejaVuSans-33" x="95.410156"/>
       <use xlink:href="#DejaVuSans-35" x="159.033203"/>
      </g>
     </g>
    </g>
    <g id="ytick_4">
     <g id="line2d_19">
      <path d="M 90 212.089328 
L 648 212.089328 
" clip-path="url(#pf661d7fcdf)" style="fill: none; stroke: #b0b0b0; stroke-width: 0.8; stroke-linecap: square"/>
     </g>
     <g id="line2d_20">
      <g>
       <use xlink:href="#mb792c1858d" x="90" y="212.089328" style="stroke: #000000; stroke-width: 0.8"/>
      </g>
     </g>
     <g id="text_11">
      <!-- 0.40 -->
      <g transform="translate(60.734375 215.888546) scale(0.1 -0.1)">
       <use xlink:href="#DejaVuSans-30"/>
       <use xlink:href="#DejaVuSans-2e" x="63.623047"/>
       <use xlink:href="#DejaVuSans-34" x="95.410156"/>
       <use xlink:href="#DejaVuSans-30" x="159.033203"/>
      </g>
     </g>
    </g>
    <g id="ytick_5">
     <g id="line2d_21">
      <path d="M 90 164.394701 
L 648 164.394701 
" clip-path="url(#pf661d7fcdf)" style="fill: none; stroke: #b0b0b0; stroke-width: 0.8; stroke-linecap: square"/>
     </g>
     <g id="line2d_22">
      <g>
       <use xlink:href="#mb792c1858d" x="90" y="164.394701" style="stroke: #000000; stroke-width: 0.8"/>
      </g>
     </g>
     <g id="text_12">
      <!-- 0.45 -->
      <g transform="translate(60.734375 168.19392) scale(0.1 -0.1)">
       <use xlink:href="#DejaVuSans-30"/>
       <use xlink:href="#DejaVuSans-2e" x="63.623047"/>
       <use xlink:href="#DejaVuSans-34" x="95.410156"/>
       <use xlink:href="#DejaVuSans-35" x="159.033203"/>
      </g>
     </g>
    </g>
    <g id="ytick_6">
     <g id="line2d_23">
      <path d="M 90 116.700075 
L 648 116.700075 
" clip-path="url(#pf661d7fcdf)" style="fill: none; stroke: #b0b0b0; stroke-width: 0.8; stroke-linecap: square"/>
     </g>
     <g id="line2d_24">
      <g>
       <use xlink:href="#mb792c1858d" x="90" y="116.700075" style="stroke: #000000; stroke-width: 0.8"/>
      </g>
     </g>
     <g id="text_13">
      <!-- 0.50 -->
      <g transform="translate(60.734375 120.499294) scale(0.1 -0.1)">
       <use xlink:href="#DejaVuSans-30"/>
       <use xlink:href="#DejaVuSans-2e" x="63.623047"/>
       <use xlink:href="#DejaVuSans-35" x="95.410156"/>
       <use xlink:href="#DejaVuSans-30" x="159.033203"/>
      </g>
     </g>
    </g>
    <g id="ytick_7">
     <g id="line2d_25">
      <path d="M 90 69.005449 
L 648 69.005449 
" clip-path="url(#pf661d7fcdf)" style="fill: none; stroke: #b0b0b0; stroke-width: 0.8; stroke-linecap: square"/>
     </g>
     <g id="line2d_26">
      <g>
       <use xlink:href="#mb792c1858d" x="90" y="69.005449" style="stroke: #000000; stroke-width: 0.8"/>
      </g>
     </g>
     <g id="text_14">
      <!-- 0.55 -->
      <g transform="translate(60.734375 72.804667) scale(0.1 -0.1)">
       <use xlink:href="#DejaVuSans-30"/>
       <use xlink:href="#DejaVuSans-2e" x="63.623047"/>
       <use xlink:href="#DejaVuSans-35" x="95.410156"/>
       <use xlink:href="#DejaVuSans-35" x="159.033203"/>
      </g>
     </g>
    </g>
    <g id="text_15">
     <!-- Error -->
     <g transform="translate(54.654688 230.345156) rotate(-90) scale(0.1 -0.1)">
      <defs>
       <path id="DejaVuSans-72" d="M 2631 2963 
Q 2534 3019 2420 3045 
Q 2306 3072 2169 3072 
Q 1681 3072 1420 2755 
Q 1159 2438 1159 1844 
L 1159 0 
L 581 0 
L 581 3500 
L 1159 3500 
L 1159 2956 
Q 1341 3275 1631 3429 
Q 1922 3584 2338 3584 
Q 2397 3584 2469 3576 
Q 2541 3569 2628 3553 
L 2631 2963 
z
" transform="scale(0.015625)"/>
      </defs>
      <use xlink:href="#DejaVuSans-45"/>
      <use xlink:href="#DejaVuSans-72" x="63.183594"/>
      <use xlink:href="#DejaVuSans-72" x="102.546875"/>
      <use xlink:href="#DejaVuSans-6f" x="141.410156"/>
      <use xlink:href="#DejaVuSans-72" x="202.591797"/>
     </g>
    </g>
   </g>
   <g id="line2d_27">
    <path d="M 115.363636 191.810632 
L 116.379197 66.96 
L 116.886978 100.356943 
L 117.394758 91.064425 
L 117.902539 103.34676 
L 118.410319 101.382884 
L 118.9181 112.764356 
L 119.42588 107.834539 
L 119.933661 122.834543 
L 120.441441 114.781993 
L 120.949222 131.540701 
L 121.457002 122.716646 
L 121.964783 139.752611 
L 122.472563 131.401627 
L 122.980344 147.491072 
L 123.488124 140.551702 
L 123.995905 154.849402 
L 124.503686 149.953552 
L 125.011466 161.921171 
L 125.519247 159.464071 
L 126.027027 168.781224 
L 126.534808 168.185344 
L 127.042588 175.484311 
L 127.550369 176.04915 
L 128.058149 180.82253 
L 129.07371 186.027738 
L 129.581491 189.718284 
L 130.089271 191.160684 
L 130.597052 195.932259 
L 131.104832 196.224916 
L 131.612613 200.872409 
L 132.120393 201.217772 
L 132.628174 204.504231 
L 133.643735 208.062443 
L 134.151515 210.957949 
L 134.659296 211.538252 
L 135.167076 215.683594 
L 135.674857 214.923425 
L 136.182637 220.296892 
L 136.690418 218.210521 
L 137.198198 224.785982 
L 137.705979 221.393073 
L 138.213759 229.059567 
L 138.72154 224.465702 
L 139.22932 231.911119 
L 139.737101 227.424188 
L 140.244881 234.659382 
L 140.752662 230.265483 
L 141.260442 237.299853 
L 141.768223 232.987686 
L 142.276003 239.829336 
L 142.783784 235.589987 
L 143.291564 242.245885 
L 143.799345 238.072588 
L 144.307125 244.548723 
L 144.814906 239.939155 
L 145.322686 245.814332 
L 145.830467 241.052638 
L 146.338247 247.001644 
L 146.846028 241.93915 
L 147.353808 248.12776 
L 147.861589 242.789851 
L 148.369369 249.194025 
L 148.87715 243.605005 
L 149.38493 250.202108 
L 149.892711 244.385141 
L 150.400491 251.153927 
L 150.908272 245.130984 
L 151.416052 252.051584 
L 151.923833 245.843403 
L 152.431613 252.897306 
L 152.939394 246.52335 
L 153.447174 253.693391 
L 153.954955 247.171807 
L 154.462735 254.442158 
L 154.970516 247.789725 
L 155.478296 255.145906 
L 155.986077 248.377972 
L 156.493857 255.806884 
L 157.001638 248.937263 
L 157.509419 256.427259 
L 158.017199 249.46809 
L 158.52498 257.009107 
L 159.03276 249.970637 
L 159.540541 257.55441 
L 160.048321 250.44467 
L 160.556102 258.06509 
L 161.063882 250.889409 
L 161.571663 258.543083 
L 162.079443 251.303359 
L 162.587224 258.990526 
L 163.095004 251.68412 
L 163.602785 259.410136 
L 164.110565 252.028206 
L 164.618346 259.806011 
L 165.126126 252.330983 
L 165.633907 260.18533 
L 166.141687 252.587062 
L 166.649468 260.561948 
L 167.157248 252.791977 
L 167.665029 260.964064 
L 168.172809 252.947163 
L 168.68059 261.45017 
L 169.18837 253.072581 
L 169.696151 259.699275 
L 170.203931 253.234207 
L 170.711712 256.885921 
L 171.219492 251.974641 
L 171.727273 250.377402 
L 172.235053 241.649812 
L 172.742834 240.15964 
L 173.250614 228.379473 
L 173.758395 226.939569 
L 174.266175 218.339304 
L 174.773956 222.514115 
L 175.281736 218.151018 
L 175.789517 225.425654 
L 176.297297 225.389599 
L 176.805078 230.899364 
L 177.312858 231.873885 
L 177.820639 236.412926 
L 178.328419 237.503055 
L 178.8362 241.111193 
L 179.34398 242.064728 
L 179.851761 244.812287 
L 180.359541 245.540823 
L 180.867322 247.584272 
L 181.375102 248.087802 
L 181.882883 249.58514 
L 182.390663 249.913687 
L 182.898444 250.949357 
L 183.406224 251.224491 
L 183.914005 250.714998 
L 184.421785 252.195452 
L 184.929566 250.447405 
L 185.437346 252.934069 
L 185.945127 250.251993 
L 186.452907 252.878186 
L 186.960688 250.192117 
L 187.468468 253.005744 
L 187.976249 250.295526 
L 188.484029 253.326159 
L 188.99181 250.565809 
L 189.49959 253.82807 
L 190.007371 250.994898 
L 190.515152 254.492173 
L 191.022932 251.574381 
L 191.530713 254.514726 
L 192.038493 252.305128 
L 192.546274 253.895623 
L 193.054054 251.573472 
L 193.561835 252.536816 
L 194.069615 250.160299 
L 194.577396 250.412469 
L 195.085176 248.514165 
L 195.592957 247.943417 
L 196.100737 246.961867 
L 196.608518 245.602081 
L 197.116298 246.038404 
L 197.624079 244.092266 
L 198.131859 246.262003 
L 198.63964 243.309308 
L 199.14742 247.760063 
L 199.655201 244.649588 
L 200.162981 250.159965 
L 200.670762 247.538382 
L 201.178542 252.86705 
L 201.686323 250.260612 
L 202.194103 255.369346 
L 202.701884 252.872506 
L 203.209664 257.352326 
L 203.717445 255.188951 
L 204.225225 258.690962 
L 204.733006 257.135078 
L 205.240786 259.413467 
L 205.748567 258.750425 
L 206.256347 259.665306 
L 206.764128 260.145419 
L 207.271908 259.664922 
L 207.779689 261.456041 
L 208.287469 259.64282 
L 208.79525 262.796292 
L 209.30303 259.777083 
L 209.810811 264.221776 
L 210.318591 260.153638 
L 210.826372 265.717912 
L 211.334152 260.76607 
L 211.841933 267.210148 
L 212.349713 261.541337 
L 212.857494 268.579939 
L 213.365274 262.366516 
L 213.873055 269.672357 
L 214.380835 263.102969 
L 214.888616 270.292297 
L 215.396396 263.590088 
L 215.904177 270.178961 
L 216.411957 263.652843 
L 216.919738 268.120044 
L 217.427518 263.144575 
L 217.935299 263.341775 
L 218.443079 262.087647 
L 218.95086 256.149249 
L 219.45864 260.958366 
L 219.966421 249.404622 
L 220.474201 259.322739 
L 220.981982 246.078295 
L 221.489762 259.558522 
L 221.997543 247.671219 
L 222.505324 262.925521 
L 223.013104 252.764261 
L 223.520885 267.719067 
L 224.028665 258.912169 
L 224.536446 272.342556 
L 225.044226 264.425608 
L 225.552007 275.883638 
L 226.059787 268.558445 
L 226.567568 277.526283 
L 227.075348 271.256951 
L 227.583129 277.22128 
L 228.090909 273.052847 
L 228.59869 276.204107 
L 229.10647 274.975559 
L 229.614251 275.378126 
L 230.122031 278.077235 
L 230.629812 275.550454 
L 231.137592 280.612177 
L 231.645373 270.827847 
L 232.153153 280.055207 
L 232.660934 266.831686 
L 233.168714 281.473066 
L 233.676495 264.152795 
L 234.184275 284.755027 
L 234.692056 262.928886 
L 235.199836 288.837914 
L 235.707617 263.690146 
L 236.215397 290.710813 
L 236.723178 263.527905 
L 237.230958 291.340792 
L 237.738739 263.002411 
L 238.246519 285.857222 
L 238.7543 266.445509 
L 239.26208 279.92278 
L 239.769861 269.079094 
L 240.277641 277.210567 
L 240.785422 272.697288 
L 241.293202 277.277569 
L 241.800983 277.930005 
L 242.308763 279.535811 
L 242.816544 282.688383 
L 243.324324 283.535721 
L 243.832105 285.426671 
L 244.339885 285.295536 
L 244.847666 285.875486 
L 245.355446 283.007286 
L 245.863227 282.940308 
L 246.371007 279.592139 
L 247.386568 269.011459 
L 247.894349 237.681024 
L 248.402129 250.250464 
L 248.90991 212.615595 
L 249.41769 251.47309 
L 249.925471 217.81796 
L 250.433251 259.710396 
L 250.941032 230.294248 
L 251.448812 266.03545 
L 251.956593 241.015995 
L 252.464373 271.409383 
L 252.972154 249.964455 
L 253.479934 276.088318 
L 253.987715 257.69659 
L 254.495495 280.313963 
L 255.003276 264.55994 
L 255.511057 284.228963 
L 256.018837 270.706516 
L 256.526618 287.086962 
L 257.034398 276.165847 
L 257.542179 289.196765 
L 258.049959 280.90038 
L 258.55774 291.487626 
L 259.06552 284.83913 
L 259.573301 293.894801 
L 260.081081 287.895984 
L 260.588862 296.35017 
L 261.096642 289.979616 
L 261.604423 298.791835 
L 262.112203 291.001193 
L 262.619984 301.170917 
L 263.127764 290.885862 
L 263.635545 303.455929 
L 264.143325 289.594628 
L 264.651106 304.727435 
L 265.158886 287.16368 
L 265.666667 304.535393 
L 266.174447 283.567483 
L 266.682228 303.857084 
L 267.190008 279.003784 
L 267.697789 302.896857 
L 268.205569 274.449284 
L 268.71335 301.986293 
L 269.22113 270.722399 
L 269.728911 301.525342 
L 270.236691 268.609955 
L 270.744472 300.957155 
L 271.252252 268.54448 
L 271.760033 300.560666 
L 272.267813 270.440767 
L 272.775594 302.572196 
L 273.283374 273.849013 
L 273.791155 306.17346 
L 274.298935 278.289812 
L 274.806716 309.552034 
L 275.314496 283.529176 
L 275.822277 312.136801 
L 276.330057 289.691789 
L 276.837838 315.015548 
L 277.345618 296.283674 
L 277.853399 317.148382 
L 278.361179 304.901811 
L 278.86896 315.147977 
L 279.37674 313.678254 
L 279.884521 313.065762 
L 280.392301 323.224966 
L 280.900082 307.081341 
L 281.407862 337.02584 
L 281.915643 290.582596 
L 282.423423 329.343863 
L 282.931204 278.243822 
L 283.438984 306.65177 
L 283.946765 271.729524 
L 284.454545 289.885574 
L 284.962326 275.326467 
L 285.470106 284.729966 
L 285.977887 283.949367 
L 286.485667 287.2022 
L 286.993448 292.678604 
L 287.501229 293.530319 
L 288.009009 299.641892 
L 288.51679 301.706032 
L 289.532351 310.732168 
L 290.040131 310.75625 
L 290.547912 320.441068 
L 291.055692 315.168602 
L 291.563473 331.00059 
L 292.071253 319.673837 
L 292.579034 342.826963 
L 293.086814 323.857603 
L 293.594595 356.357875 
L 294.102375 326.388416 
L 294.610156 363.913198 
L 295.117936 330.346149 
L 295.625717 356.898949 
L 296.133497 333.30033 
L 296.641278 336.480623 
L 297.149058 332.671813 
L 297.656839 306.831496 
L 298.164619 323.28083 
L 298.6724 267.91027 
L 299.18018 284.766956 
L 299.687961 235.478026 
L 300.195741 254.651579 
L 300.703522 220.751377 
L 301.211302 247.253798 
L 301.719083 226.440615 
L 302.226863 255.720002 
L 302.734644 240.317998 
L 303.242424 270.116137 
L 303.750205 254.853728 
L 304.257985 285.112822 
L 304.765766 267.096679 
L 305.273546 299.119998 
L 305.781327 275.82632 
L 306.289107 312.086568 
L 306.796888 283.84033 
L 307.304668 323.330921 
L 307.812449 291.672627 
L 308.320229 329.365587 
L 308.82801 299.639791 
L 309.33579 331.73778 
L 309.843571 307.910815 
L 310.351351 333.769738 
L 310.859132 316.571855 
L 311.366912 335.4793 
L 311.874693 325.028033 
L 312.382473 336.046183 
L 312.890254 331.303922 
L 313.398034 335.549868 
L 313.905815 337.990561 
L 314.413595 334.170841 
L 314.921376 345.051386 
L 315.429156 333.16408 
L 315.936937 350.048729 
L 316.444717 332.581516 
L 316.952498 353.405434 
L 317.460278 332.493424 
L 317.968059 355.040949 
L 318.475839 331.747901 
L 318.98362 353.465653 
L 319.4914 330.378971 
L 319.999181 352.159955 
L 320.506962 329.794374 
L 321.014742 350.237219 
L 321.522523 330.01005 
L 322.030303 349.449555 
L 322.538084 330.946409 
L 323.045864 349.704475 
L 323.553645 332.273038 
L 324.061425 350.849162 
L 324.569206 334.185827 
L 325.076986 352.723512 
L 325.584767 336.482021 
L 326.092547 355.218527 
L 326.600328 338.794281 
L 327.108108 358.330737 
L 327.615889 341.330545 
L 328.123669 361.189166 
L 328.63145 344.291734 
L 329.13923 362.716566 
L 329.647011 345.972359 
L 330.154791 364.982898 
L 330.662572 347.312766 
L 331.170352 357.280478 
L 332.185913 341.887552 
L 332.693694 348.844192 
L 333.201474 314.158063 
L 333.709255 330.476057 
L 334.217035 283.445403 
L 334.724816 294.466287 
L 335.232596 252.838973 
L 335.740377 268.058587 
L 336.248157 237.420028 
L 336.755938 256.62094 
L 337.263718 238.003968 
L 337.771499 259.511387 
L 338.279279 247.757871 
L 338.78706 270.128364 
L 339.29484 259.952528 
L 339.802621 282.944093 
L 340.310401 271.494468 
L 340.818182 295.47216 
L 341.325962 281.838559 
L 341.833743 307.19937 
L 342.341523 291.392582 
L 342.849304 318.362166 
L 343.357084 298.893963 
L 343.864865 329.339781 
L 344.372645 305.999719 
L 344.880426 340.020389 
L 345.388206 313.589053 
L 345.895987 344.581655 
L 346.403767 321.873199 
L 346.911548 347.121814 
L 347.419328 331.054652 
L 347.927109 348.433258 
L 348.434889 341.354235 
L 348.94267 347.110501 
L 349.45045 349.005443 
L 349.958231 345.657491 
L 350.466011 354.528 
L 350.973792 341.836738 
L 351.481572 351.672767 
L 351.989353 337.977316 
L 352.497133 346.057241 
L 353.004914 333.892703 
L 353.512695 341.950287 
L 354.020475 325.781008 
L 354.528256 336.670011 
L 355.036036 318.101082 
L 355.543817 331.015763 
L 356.051597 313.75469 
L 356.559378 326.655528 
L 357.067158 310.994053 
L 357.574939 323.209595 
L 358.082719 311.651 
L 358.5905 322.891536 
L 359.09828 314.682193 
L 359.606061 325.730071 
L 360.113841 318.933436 
L 360.621622 330.681321 
L 361.129402 323.738044 
L 361.637183 336.036234 
L 362.144963 328.489738 
L 362.652744 340.940089 
L 363.160524 332.52719 
L 363.668305 345.209855 
L 364.176085 336.902155 
L 364.683866 349.858379 
L 365.191646 341.813971 
L 365.699427 352.730066 
L 366.207207 347.091204 
L 366.714988 353.078605 
L 367.222768 349.320792 
L 367.730549 354.119273 
L 368.238329 350.349009 
L 368.74611 356.137472 
L 369.25389 352.16368 
L 369.761671 358.121083 
L 370.269451 352.882158 
L 370.777232 356.107522 
L 371.285012 353.335629 
L 371.792793 341.392768 
L 372.300573 351.601282 
L 372.808354 320.801835 
L 373.316134 336.021085 
L 373.823915 299.102753 
L 374.331695 313.723605 
L 374.839476 280.268357 
L 375.347256 296.89416 
L 375.855037 268.894521 
L 376.362817 287.639944 
L 376.870598 265.433796 
L 377.378378 285.901226 
L 377.886159 268.028008 
L 378.393939 289.669251 
L 378.90172 273.983638 
L 379.4095 296.434506 
L 379.917281 281.23071 
L 380.425061 304.362269 
L 380.932842 288.721443 
L 381.440622 312.53652 
L 381.948403 296.137537 
L 382.456183 320.672183 
L 382.963964 303.506317 
L 383.471744 328.785221 
L 383.979525 310.890594 
L 384.487305 336.996054 
L 384.995086 316.831794 
L 385.502867 343.117745 
L 386.010647 323.143137 
L 386.518428 348.639862 
L 387.026208 329.948273 
L 387.533989 352.120359 
L 388.041769 337.382153 
L 388.54955 353.676843 
L 389.05733 345.603677 
L 389.565111 354.232181 
L 390.072891 354.80367 
L 390.580672 353.104794 
L 391.088452 360.237808 
L 391.596233 351.731948 
L 392.104013 357.740107 
L 392.611794 350.666544 
L 393.119574 352.275675 
L 393.627355 347.225224 
L 394.135135 346.929852 
L 394.642916 343.782294 
L 395.150696 342.458591 
L 395.658477 333.325931 
L 396.166257 339.471864 
L 396.674038 322.77853 
L 397.181818 332.807562 
L 397.689599 313.290106 
L 398.197379 326.807339 
L 398.70516 308.113054 
L 399.21294 322.77542 
L 399.720721 306.70351 
L 400.228501 319.823701 
L 400.736282 308.116022 
L 401.244062 319.855531 
L 401.751843 310.969431 
L 402.259623 322.466951 
L 402.767404 314.719397 
L 403.275184 326.622393 
L 403.782965 318.767487 
L 404.290745 331.433314 
L 404.798526 322.874309 
L 405.306306 335.309869 
L 405.814087 327.000218 
L 406.321867 339.332995 
L 406.829648 331.18857 
L 407.337428 342.628302 
L 407.845209 335.236748 
L 408.352989 345.898785 
L 408.86077 339.374247 
L 409.36855 349.38249 
L 409.876331 343.504391 
L 410.384111 353.139676 
L 410.891892 347.12599 
L 411.399672 354.084508 
L 411.907453 351.156294 
L 412.415233 354.790377 
L 412.923014 355.74693 
L 413.430794 355.864594 
L 413.938575 359.375203 
L 414.446355 357.470228 
L 414.954136 361.122623 
L 415.461916 359.861682 
L 415.969697 361.290173 
L 416.477477 363.395901 
L 416.985258 360.488406 
L 417.493038 363.882681 
L 418.000819 358.996684 
L 419.01638 354.351347 
L 419.524161 332.195242 
L 420.031941 338.412089 
L 420.539722 302.0381 
L 421.047502 308.610232 
L 421.555283 275.883058 
L 422.063063 284.215006 
L 422.570844 259.561996 
L 423.078624 270.679507 
L 423.586405 255.49638 
L 424.094185 269.136004 
L 424.601966 260.480157 
L 425.109746 275.728268 
L 425.617527 269.192652 
L 426.125307 285.396026 
L 426.633088 278.091615 
L 427.140868 295.008009 
L 427.648649 285.945825 
L 428.156429 303.546592 
L 428.66421 292.766659 
L 429.17199 311.071523 
L 429.679771 298.916247 
L 430.187551 317.931495 
L 430.695332 304.72587 
L 431.203112 324.441764 
L 431.710893 310.416542 
L 432.218673 330.817997 
L 432.726454 316.123704 
L 433.234234 337.196143 
L 433.742015 321.350396 
L 434.249795 342.422041 
L 434.757576 326.030335 
L 435.265356 346.54384 
L 435.773137 330.944018 
L 436.280917 350.854826 
L 436.788698 336.144736 
L 437.296478 355.403444 
L 437.804259 341.69489 
L 438.312039 357.714748 
L 438.81982 347.668693 
L 439.3276 358.312251 
L 439.835381 354.155726 
L 440.343161 358.99372 
L 440.850942 360.755638 
L 441.358722 359.971927 
L 441.866503 366.22564 
L 442.374283 360.065609 
L 442.882064 368.16412 
L 443.389844 359.38887 
L 443.897625 365.470241 
L 444.405405 359.001738 
L 444.913186 361.200238 
L 445.928747 357.085847 
L 446.436527 357.005284 
L 446.944308 353.359769 
L 447.452088 350.707981 
L 447.959869 350.410775 
L 448.467649 338.008298 
L 448.97543 347.913683 
L 449.48321 326.503025 
L 449.990991 340.151369 
L 450.498771 317.831022 
L 451.006552 334.118729 
L 451.514333 313.345425 
L 452.022113 326.498147 
L 452.529894 312.234473 
L 453.037674 319.417758 
L 453.545455 314.457375 
L 454.053235 316.978204 
L 454.561016 318.138022 
L 455.068796 317.943281 
L 455.576577 322.247569 
L 456.084357 320.920795 
L 456.592138 326.406703 
L 457.099918 324.847842 
L 457.607699 330.193104 
L 458.115479 329.094053 
L 458.62326 333.491196 
L 459.13104 333.370843 
L 459.638821 336.349887 
L 460.654382 338.882264 
L 461.162162 341.822821 
L 461.669943 341.209746 
L 462.177723 346.115167 
L 462.685504 343.439842 
L 463.193284 350.581646 
L 463.701065 345.63315 
L 464.208845 353.985345 
L 464.716626 347.349636 
L 465.224406 357.536789 
L 465.732187 349.170617 
L 466.239967 361.503915 
L 466.747748 351.227176 
L 467.255528 365.144694 
L 467.763309 353.715408 
L 468.271089 367.630734 
L 468.77887 356.773356 
L 469.28665 369.36 
L 469.794431 360.238973 
L 470.302211 368.239613 
L 470.809992 365.297289 
L 471.317772 366.471762 
L 471.825553 366.653275 
L 472.333333 366.421054 
L 472.841114 361.812397 
L 473.348894 366.884591 
L 473.856675 352.561137 
L 474.364455 346.608305 
L 474.872236 335.432449 
L 475.380016 297.292394 
L 475.887797 289.753296 
L 476.395577 250.339732 
L 476.903358 248.944446 
L 477.411138 227.928765 
L 477.918919 235.961214 
L 478.426699 232.963318 
L 478.93448 247.265637 
L 479.44226 249.179613 
L 479.950041 266.073104 
L 480.457821 264.255999 
L 480.965602 281.660808 
L 481.473382 275.075322 
L 481.981163 292.129883 
L 482.488943 282.455293 
L 482.996724 299.002376 
L 483.504505 287.863242 
L 484.012285 304.009587 
L 484.520066 292.364454 
L 485.027846 308.263973 
L 485.535627 296.528464 
L 486.043407 312.312714 
L 486.551188 300.570409 
L 487.058968 316.355402 
L 487.566749 304.467352 
L 488.074529 320.421968 
L 488.58231 308.347268 
L 489.09009 324.48049 
L 489.597871 312.145305 
L 490.105651 328.489368 
L 490.613432 315.102325 
L 491.121212 332.415617 
L 491.628993 318.003939 
L 492.136773 335.011867 
L 492.644554 320.843289 
L 493.152334 337.278748 
L 493.660115 323.615412 
L 494.167895 339.470685 
L 494.675676 326.314462 
L 495.183456 341.583555 
L 495.691237 328.928942 
L 496.199017 343.611275 
L 496.706798 331.364414 
L 497.214578 345.545554 
L 497.722359 333.688383 
L 498.230139 347.375906 
L 498.73792 335.886203 
L 499.2457 349.089767 
L 499.753481 337.940437 
L 500.261261 350.061757 
L 500.769042 339.83113 
L 501.276822 350.670731 
L 501.784603 341.536069 
L 502.292383 351.225785 
L 502.800164 343.031017 
L 503.307944 351.717063 
L 503.815725 344.289968 
L 504.323505 352.133723 
L 504.831286 345.285427 
L 505.339066 352.464242 
L 505.846847 345.988804 
L 506.354627 352.696789 
L 506.862408 346.370997 
L 507.370188 352.819724 
L 507.877969 346.40332 
L 508.385749 352.822274 
L 508.89353 346.058957 
L 509.40131 352.695439 
L 509.909091 345.315182 
L 510.416871 352.4332 
L 510.924652 344.156591 
L 511.432432 352.03406 
L 511.940213 342.579561 
L 512.447993 351.50289 
L 512.955774 340.597957 
L 513.463554 350.698141 
L 513.971335 338.249705 
L 514.479115 348.661547 
L 514.986896 335.603173 
L 515.494676 346.4316 
L 516.002457 332.761329 
L 516.510238 344.104126 
L 517.018018 329.860812 
L 517.525799 341.797668 
L 518.033579 327.062941 
L 518.54136 339.642984 
L 519.04914 324.535312 
L 519.556921 337.766242 
L 520.064701 322.426281 
L 520.572482 336.269138 
L 521.080262 320.839186 
L 521.588043 334.245949 
L 522.095823 319.81555 
L 522.603604 332.941941 
L 523.111384 319.207995 
L 523.619165 332.380631 
L 524.126945 319.105844 
L 524.634726 332.4818 
L 525.142506 319.42861 
L 525.650287 333.133425 
L 526.158067 320.083008 
L 526.665848 334.217812 
L 527.173628 320.986471 
L 527.681409 335.62936 
L 528.189189 322.074537 
L 528.69697 337.282224 
L 529.20475 323.30091 
L 529.712531 338.335052 
L 530.220311 324.524897 
L 530.728092 339.368259 
L 531.235872 325.782433 
L 531.743653 340.445481 
L 532.251433 327.091323 
L 532.759214 341.55487 
L 533.266994 328.439033 
L 533.774775 342.684249 
L 534.282555 329.811238 
L 534.790336 343.81974 
L 535.298116 331.190554 
L 535.805897 344.944927 
L 536.313677 332.555741 
L 536.821458 346.040272 
L 537.329238 333.881119 
L 537.837019 347.082614 
L 538.344799 335.13602 
L 538.85258 348.044672 
L 539.36036 336.28422 
L 539.868141 348.894508 
L 540.375921 337.283324 
L 540.883702 349.187998 
L 541.391482 338.084147 
L 541.899263 349.352175 
L 542.407043 338.630209 
L 542.914824 349.451056 
L 543.422604 338.857632 
L 543.930385 349.461687 
L 544.438165 338.695917 
L 544.945946 349.360165 
L 545.453726 338.070479 
L 545.961507 349.123847 
L 546.469287 336.908261 
L 546.977068 347.894356 
L 547.484848 335.148315 
L 547.992629 346.121338 
L 548.50041 332.75946 
L 549.00819 343.838813 
L 549.515971 329.766329 
L 550.023751 341.101174 
L 550.531532 326.281624 
L 551.039312 338.044671 
L 551.547093 322.534804 
L 552.054873 334.449923 
L 552.562654 318.876377 
L 553.070434 328.820216 
L 553.578215 315.730956 
L 554.085995 323.87415 
L 554.593776 313.391116 
L 555.101556 320.129233 
L 555.609337 311.740142 
L 556.117117 317.878906 
L 556.624898 311.085886 
L 557.132678 317.10025 
L 557.640459 311.272758 
L 558.148239 317.502476 
L 558.65602 312.242708 
L 559.1638 318.680221 
L 559.671581 313.635717 
L 560.179361 320.270132 
L 560.687142 314.965127 
L 561.194922 322.034958 
L 561.702703 316.103643 
L 562.210483 323.867784 
L 562.718264 317.161021 
L 563.226044 325.751919 
L 563.733825 318.181258 
L 564.241605 327.713913 
L 564.749386 319.223911 
L 565.257166 329.789644 
L 565.764947 320.344273 
L 566.272727 332.006898 
L 566.780508 321.525775 
L 567.288288 334.379706 
L 567.796069 322.506635 
L 568.303849 336.62228 
L 568.81163 323.655664 
L 569.31941 337.703953 
L 569.827191 324.982944 
L 570.334971 338.923839 
L 570.842752 326.485685 
L 571.350532 340.272338 
L 571.858313 328.149603 
L 572.366093 341.731599 
L 572.873874 329.950299 
L 573.381654 343.276587 
L 573.889435 331.854425 
L 574.397215 344.875761 
L 574.904996 333.820298 
L 575.412776 345.656116 
L 575.920557 335.797638 
L 576.428337 346.091967 
L 576.936118 337.726067 
L 577.443898 346.575106 
L 577.951679 339.532066 
L 578.459459 347.071334 
L 578.96724 341.123982 
L 579.47502 347.538298 
L 579.982801 342.384676 
L 580.490581 347.922944 
L 580.998362 343.161521 
L 581.506143 348.15853 
L 582.013923 343.254073 
L 582.521704 348.162233 
L 583.029484 342.401806 
L 583.537265 347.836025 
L 584.045045 340.279566 
L 584.552826 347.076782 
L 585.060606 336.520686 
L 585.568387 344.611806 
L 586.076167 330.811484 
L 586.583948 338.861843 
L 587.091728 323.131455 
L 587.599509 331.696911 
L 588.107289 314.194034 
L 588.61507 318.052512 
L 589.12285 305.897382 
L 589.630631 304.89183 
L 590.138411 299.258749 
L 590.646192 296.40749 
L 591.153972 296.382821 
L 591.661753 294.696424 
L 592.169533 298.891956 
L 592.677314 298.425195 
L 593.185094 304.093155 
L 593.692875 304.198486 
L 594.200655 309.133288 
L 594.708436 309.299718 
L 595.216216 312.639369 
L 595.723997 312.537928 
L 596.231777 314.993366 
L 596.739558 314.56246 
L 597.247338 316.537422 
L 597.755119 315.935046 
L 598.262899 317.66493 
L 598.77068 316.827947 
L 599.27846 318.421351 
L 599.786241 317.474604 
L 600.294021 318.639147 
L 600.801802 318.015862 
L 601.309582 318.649445 
L 602.325143 318.337879 
L 602.832924 319.176684 
L 603.340704 317.341731 
L 603.848485 320.198285 
L 604.356265 316.648388 
L 604.864046 321.838548 
L 605.371826 315.965326 
L 605.879607 324.260696 
L 606.387387 315.687306 
L 606.895168 327.495531 
L 607.402948 316.361095 
L 607.910729 329.126541 
L 608.418509 317.930697 
L 608.92629 330.948494 
L 609.43407 320.260196 
L 609.941851 333.309359 
L 610.449631 323.197554 
L 610.957412 336.086374 
L 611.465192 326.616969 
L 611.972973 337.588499 
L 612.480753 330.438364 
L 612.988534 338.606736 
L 613.496314 334.634969 
L 614.004095 339.927423 
L 614.511876 339.240996 
L 615.019656 341.557989 
L 615.527437 343.269943 
L 616.035217 343.354324 
L 616.542998 347.557309 
L 617.050778 344.338054 
L 617.558559 352.803506 
L 618.066339 345.884583 
L 618.57412 357.180016 
L 619.0819 348.361183 
L 619.589681 361.115452 
L 620.097461 348.470725 
L 620.605242 355.278381 
L 621.113022 342.137366 
L 621.620803 345.201254 
L 622.128583 323.175554 
L 622.636364 331.912931 
L 622.636364 331.912931 
" clip-path="url(#pf661d7fcdf)" style="fill: none; stroke: #1f77b4; stroke-width: 1.5; stroke-linecap: square"/>
   </g>
   <g id="patch_3">
    <path d="M 90 384.48 
L 90 51.84 
" style="fill: none; stroke: #000000; stroke-width: 0.8; stroke-linejoin: miter; stroke-linecap: square"/>
   </g>
   <g id="patch_4">
    <path d="M 648 384.48 
L 648 51.84 
" style="fill: none; stroke: #000000; stroke-width: 0.8; stroke-linejoin: miter; stroke-linecap: square"/>
   </g>
   <g id="patch_5">
    <path d="M 90 384.48 
L 648 384.48 
" style="fill: none; stroke: #000000; stroke-width: 0.8; stroke-linejoin: miter; stroke-linecap: square"/>
   </g>
   <g id="patch_6">
    <path d="M 90 51.84 
L 648 51.84 
" style="fill: none; stroke: #000000; stroke-width: 0.8; stroke-linejoin: miter; stroke-linecap: square"/>
   </g>
   <g id="text_16">
    <!-- Training Error vs. Epoch Number (Up to Epoch 1000) -->
    <g transform="translate(211.843125 45.84) scale(0.12 -0.12)">
     <defs>
      <path id="DejaVuSans-54" d="M -19 4666 
L 3928 4666 
L 3928 4134 
L 2272 4134 
L 2272 0 
L 1638 0 
L 1638 4134 
L -19 4134 
L -19 4666 
z
" transform="scale(0.015625)"/>
      <path id="DejaVuSans-61" d="M 2194 1759 
Q 1497 1759 1228 1600 
Q 959 1441 959 1056 
Q 959 750 1161 570 
Q 1363 391 1709 391 
Q 2188 391 2477 730 
Q 2766 1069 2766 1631 
L 2766 1759 
L 2194 1759 
z
M 3341 1997 
L 3341 0 
L 2766 0 
L 2766 531 
Q 2569 213 2275 61 
Q 1981 -91 1556 -91 
Q 1019 -91 701 211 
Q 384 513 384 1019 
Q 384 1609 779 1909 
Q 1175 2209 1959 2209 
L 2766 2209 
L 2766 2266 
Q 2766 2663 2505 2880 
Q 2244 3097 1772 3097 
Q 1472 3097 1187 3025 
Q 903 2953 641 2809 
L 641 3341 
Q 956 3463 1253 3523 
Q 1550 3584 1831 3584 
Q 2591 3584 2966 3190 
Q 3341 2797 3341 1997 
z
" transform="scale(0.015625)"/>
      <path id="DejaVuSans-69" d="M 603 3500 
L 1178 3500 
L 1178 0 
L 603 0 
L 603 3500 
z
M 603 4863 
L 1178 4863 
L 1178 4134 
L 603 4134 
L 603 4863 
z
" transform="scale(0.015625)"/>
      <path id="DejaVuSans-6e" d="M 3513 2113 
L 3513 0 
L 2938 0 
L 2938 2094 
Q 2938 2591 2744 2837 
Q 2550 3084 2163 3084 
Q 1697 3084 1428 2787 
Q 1159 2491 1159 1978 
L 1159 0 
L 581 0 
L 581 3500 
L 1159 3500 
L 1159 2956 
Q 1366 3272 1645 3428 
Q 1925 3584 2291 3584 
Q 2894 3584 3203 3211 
Q 3513 2838 3513 2113 
z
" transform="scale(0.015625)"/>
      <path id="DejaVuSans-67" d="M 2906 1791 
Q 2906 2416 2648 2759 
Q 2391 3103 1925 3103 
Q 1463 3103 1205 2759 
Q 947 2416 947 1791 
Q 947 1169 1205 825 
Q 1463 481 1925 481 
Q 2391 481 2648 825 
Q 2906 1169 2906 1791 
z
M 3481 434 
Q 3481 -459 3084 -895 
Q 2688 -1331 1869 -1331 
Q 1566 -1331 1297 -1286 
Q 1028 -1241 775 -1147 
L 775 -588 
Q 1028 -725 1275 -790 
Q 1522 -856 1778 -856 
Q 2344 -856 2625 -561 
Q 2906 -266 2906 331 
L 2906 616 
Q 2728 306 2450 153 
Q 2172 0 1784 0 
Q 1141 0 747 490 
Q 353 981 353 1791 
Q 353 2603 747 3093 
Q 1141 3584 1784 3584 
Q 2172 3584 2450 3431 
Q 2728 3278 2906 2969 
L 2906 3500 
L 3481 3500 
L 3481 434 
z
" transform="scale(0.015625)"/>
      <path id="DejaVuSans-20" transform="scale(0.015625)"/>
      <path id="DejaVuSans-76" d="M 191 3500 
L 800 3500 
L 1894 563 
L 2988 3500 
L 3597 3500 
L 2284 0 
L 1503 0 
L 191 3500 
z
" transform="scale(0.015625)"/>
      <path id="DejaVuSans-4e" d="M 628 4666 
L 1478 4666 
L 3547 763 
L 3547 4666 
L 4159 4666 
L 4159 0 
L 3309 0 
L 1241 3903 
L 1241 0 
L 628 0 
L 628 4666 
z
" transform="scale(0.015625)"/>
      <path id="DejaVuSans-75" d="M 544 1381 
L 544 3500 
L 1119 3500 
L 1119 1403 
Q 1119 906 1312 657 
Q 1506 409 1894 409 
Q 2359 409 2629 706 
Q 2900 1003 2900 1516 
L 2900 3500 
L 3475 3500 
L 3475 0 
L 2900 0 
L 2900 538 
Q 2691 219 2414 64 
Q 2138 -91 1772 -91 
Q 1169 -91 856 284 
Q 544 659 544 1381 
z
M 1991 3584 
L 1991 3584 
z
" transform="scale(0.015625)"/>
      <path id="DejaVuSans-6d" d="M 3328 2828 
Q 3544 3216 3844 3400 
Q 4144 3584 4550 3584 
Q 5097 3584 5394 3201 
Q 5691 2819 5691 2113 
L 5691 0 
L 5113 0 
L 5113 2094 
Q 5113 2597 4934 2840 
Q 4756 3084 4391 3084 
Q 3944 3084 3684 2787 
Q 3425 2491 3425 1978 
L 3425 0 
L 2847 0 
L 2847 2094 
Q 2847 2600 2669 2842 
Q 2491 3084 2119 3084 
Q 1678 3084 1418 2786 
Q 1159 2488 1159 1978 
L 1159 0 
L 581 0 
L 581 3500 
L 1159 3500 
L 1159 2956 
Q 1356 3278 1631 3431 
Q 1906 3584 2284 3584 
Q 2666 3584 2933 3390 
Q 3200 3197 3328 2828 
z
" transform="scale(0.015625)"/>
      <path id="DejaVuSans-62" d="M 3116 1747 
Q 3116 2381 2855 2742 
Q 2594 3103 2138 3103 
Q 1681 3103 1420 2742 
Q 1159 2381 1159 1747 
Q 1159 1113 1420 752 
Q 1681 391 2138 391 
Q 2594 391 2855 752 
Q 3116 1113 3116 1747 
z
M 1159 2969 
Q 1341 3281 1617 3432 
Q 1894 3584 2278 3584 
Q 2916 3584 3314 3078 
Q 3713 2572 3713 1747 
Q 3713 922 3314 415 
Q 2916 -91 2278 -91 
Q 1894 -91 1617 61 
Q 1341 213 1159 525 
L 1159 0 
L 581 0 
L 581 4863 
L 1159 4863 
L 1159 2969 
z
" transform="scale(0.015625)"/>
      <path id="DejaVuSans-65" d="M 3597 1894 
L 3597 1613 
L 953 1613 
Q 991 1019 1311 708 
Q 1631 397 2203 397 
Q 2534 397 2845 478 
Q 3156 559 3463 722 
L 3463 178 
Q 3153 47 2828 -22 
Q 2503 -91 2169 -91 
Q 1331 -91 842 396 
Q 353 884 353 1716 
Q 353 2575 817 3079 
Q 1281 3584 2069 3584 
Q 2775 3584 3186 3129 
Q 3597 2675 3597 1894 
z
M 3022 2063 
Q 3016 2534 2758 2815 
Q 2500 3097 2075 3097 
Q 1594 3097 1305 2825 
Q 1016 2553 972 2059 
L 3022 2063 
z
" transform="scale(0.015625)"/>
      <path id="DejaVuSans-28" d="M 1984 4856 
Q 1566 4138 1362 3434 
Q 1159 2731 1159 2009 
Q 1159 1288 1364 580 
Q 1569 -128 1984 -844 
L 1484 -844 
Q 1016 -109 783 600 
Q 550 1309 550 2009 
Q 550 2706 781 3412 
Q 1013 4119 1484 4856 
L 1984 4856 
z
" transform="scale(0.015625)"/>
      <path id="DejaVuSans-55" d="M 556 4666 
L 1191 4666 
L 1191 1831 
Q 1191 1081 1462 751 
Q 1734 422 2344 422 
Q 2950 422 3222 751 
Q 3494 1081 3494 1831 
L 3494 4666 
L 4128 4666 
L 4128 1753 
Q 4128 841 3676 375 
Q 3225 -91 2344 -91 
Q 1459 -91 1007 375 
Q 556 841 556 1753 
L 556 4666 
z
" transform="scale(0.015625)"/>
      <path id="DejaVuSans-74" d="M 1172 4494 
L 1172 3500 
L 2356 3500 
L 2356 3053 
L 1172 3053 
L 1172 1153 
Q 1172 725 1289 603 
Q 1406 481 1766 481 
L 2356 481 
L 2356 0 
L 1766 0 
Q 1100 0 847 248 
Q 594 497 594 1153 
L 594 3053 
L 172 3053 
L 172 3500 
L 594 3500 
L 594 4494 
L 1172 4494 
z
" transform="scale(0.015625)"/>
      <path id="DejaVuSans-29" d="M 513 4856 
L 1013 4856 
Q 1481 4119 1714 3412 
Q 1947 2706 1947 2009 
Q 1947 1309 1714 600 
Q 1481 -109 1013 -844 
L 513 -844 
Q 928 -128 1133 580 
Q 1338 1288 1338 2009 
Q 1338 2731 1133 3434 
Q 928 4138 513 4856 
z
" transform="scale(0.015625)"/>
     </defs>
     <use xlink:href="#DejaVuSans-54"/>
     <use xlink:href="#DejaVuSans-72" x="46.333984"/>
     <use xlink:href="#DejaVuSans-61" x="87.447266"/>
     <use xlink:href="#DejaVuSans-69" x="148.726562"/>
     <use xlink:href="#DejaVuSans-6e" x="176.509766"/>
     <use xlink:href="#DejaVuSans-69" x="239.888672"/>
     <use xlink:href="#DejaVuSans-6e" x="267.671875"/>
     <use xlink:href="#DejaVuSans-67" x="331.050781"/>
     <use xlink:href="#DejaVuSans-20" x="394.527344"/>
     <use xlink:href="#DejaVuSans-45" x="426.314453"/>
     <use xlink:href="#DejaVuSans-72" x="489.498047"/>
     <use xlink:href="#DejaVuSans-72" x="528.861328"/>
     <use xlink:href="#DejaVuSans-6f" x="567.724609"/>
     <use xlink:href="#DejaVuSans-72" x="628.90625"/>
     <use xlink:href="#DejaVuSans-20" x="670.019531"/>
     <use xlink:href="#DejaVuSans-76" x="701.806641"/>
     <use xlink:href="#DejaVuSans-73" x="760.986328"/>
     <use xlink:href="#DejaVuSans-2e" x="813.085938"/>
     <use xlink:href="#DejaVuSans-20" x="844.873047"/>
     <use xlink:href="#DejaVuSans-45" x="876.660156"/>
     <use xlink:href="#DejaVuSans-70" x="939.84375"/>
     <use xlink:href="#DejaVuSans-6f" x="1003.320312"/>
     <use xlink:href="#DejaVuSans-63" x="1064.501953"/>
     <use xlink:href="#DejaVuSans-68" x="1119.482422"/>
     <use xlink:href="#DejaVuSans-20" x="1182.861328"/>
     <use xlink:href="#DejaVuSans-4e" x="1214.648438"/>
     <use xlink:href="#DejaVuSans-75" x="1289.453125"/>
     <use xlink:href="#DejaVuSans-6d" x="1352.832031"/>
     <use xlink:href="#DejaVuSans-62" x="1450.244141"/>
     <use xlink:href="#DejaVuSans-65" x="1513.720703"/>
     <use xlink:href="#DejaVuSans-72" x="1575.244141"/>
     <use xlink:href="#DejaVuSans-20" x="1616.357422"/>
     <use xlink:href="#DejaVuSans-28" x="1648.144531"/>
     <use xlink:href="#DejaVuSans-55" x="1687.158203"/>
     <use xlink:href="#DejaVuSans-70" x="1760.351562"/>
     <use xlink:href="#DejaVuSans-20" x="1823.828125"/>
     <use xlink:href="#DejaVuSans-74" x="1855.615234"/>
     <use xlink:href="#DejaVuSans-6f" x="1894.824219"/>
     <use xlink:href="#DejaVuSans-20" x="1956.005859"/>
     <use xlink:href="#DejaVuSans-45" x="1987.792969"/>
     <use xlink:href="#DejaVuSans-70" x="2050.976562"/>
     <use xlink:href="#DejaVuSans-6f" x="2114.453125"/>
     <use xlink:href="#DejaVuSans-63" x="2175.634766"/>
     <use xlink:href="#DejaVuSans-68" x="2230.615234"/>
     <use xlink:href="#DejaVuSans-20" x="2293.994141"/>
     <use xlink:href="#DejaVuSans-31" x="2325.78125"/>
     <use xlink:href="#DejaVuSans-30" x="2389.404297"/>
     <use xlink:href="#DejaVuSans-30" x="2453.027344"/>
     <use xlink:href="#DejaVuSans-30" x="2516.650391"/>
     <use xlink:href="#DejaVuSans-29" x="2580.273438"/>
    </g>
   </g>
  </g>
 </g>
 <defs>
  <clipPath id="pf661d7fcdf">
   <rect x="90" y="51.84" width="558" height="332.64"/>
  </clipPath>
 </defs>
</svg>
